<svg width="13" height="13" viewBox="0 0 13 13" fill="none" xmlns="http://www.w3.org/2000/svg">
<path d="M6.25751 1.83202C6.18437 1.29322 6.56365 0.788566 7.10715 0.804744C8.10005 0.834298 9.07548 1.11105 9.94237 1.61685C11.0944 2.289 11.9885 3.32704 12.4827 4.56588C12.9768 5.80472 13.0425 7.17321 12.6694 8.4537C12.2962 9.73418 11.5056 10.8531 10.4233 11.6326C9.341 12.412 8.02916 12.8072 6.69643 12.7552C5.36369 12.7033 4.08659 12.2072 3.06825 11.3459C2.04991 10.4846 1.34881 9.30746 1.07646 8.00182C0.871507 7.0193 0.918203 6.00645 1.20488 5.05538C1.36181 4.53478 1.96067 4.33501 2.4485 4.57516C2.93633 4.8153 3.12358 5.40599 3.00922 5.93756C2.89216 6.48169 2.88889 7.04785 3.00402 7.59973C3.18667 8.47538 3.65688 9.26481 4.33984 9.84246C5.0228 10.4201 5.8793 10.7528 6.77312 10.7877C7.66694 10.8225 8.54674 10.5575 9.27259 10.0347C9.99845 9.512 10.5287 8.76156 10.7789 7.90279C11.0292 7.04402 10.9851 6.12622 10.6537 5.29538C10.3223 4.46454 9.72265 3.76836 8.95005 3.31757C8.46311 3.03346 7.92512 2.85711 7.37194 2.79566C6.83152 2.73563 6.33065 2.37082 6.25751 1.83202Z" fill="white"/>
</svg>
