<svg width="20" height="20" viewBox="0 0 20 20" fill="none" xmlns="http://www.w3.org/2000/svg">
<path d="M8.7966 1.94469C8.67943 1.08155 9.28704 0.2731 10.1577 0.299015C11.7483 0.346361 13.3109 0.789704 14.6997 1.59999C16.5451 2.67676 17.9776 4.33968 18.7692 6.32427C19.5607 8.30886 19.666 10.5011 19.0682 12.5525C18.4704 14.6038 17.2039 16.3963 15.4701 17.6449C13.7363 18.8936 11.6348 19.5266 9.49974 19.4434C7.36473 19.3602 5.31884 18.5655 3.68749 17.1856C2.05613 15.8058 0.932981 13.9202 0.496677 11.8286C0.168355 10.2546 0.243161 8.63203 0.702418 7.10843C0.953809 6.27444 1.91316 5.95441 2.69466 6.33912C3.47615 6.72383 3.77611 7.6701 3.59292 8.52167C3.40539 9.39335 3.40016 10.3003 3.58458 11.1844C3.8772 12.5872 4.63045 13.8518 5.72454 14.7772C6.81863 15.7026 8.19073 16.2356 9.6226 16.2914C11.0545 16.3472 12.4639 15.9227 13.6267 15.0852C14.7895 14.2478 15.6389 13.0456 16.0398 11.6699C16.4407 10.2942 16.3701 8.8239 15.8393 7.49291C15.3084 6.16192 14.3477 5.04666 13.11 4.32451C12.3299 3.86937 11.4681 3.58686 10.5819 3.48842C9.71616 3.39225 8.91376 2.80783 8.7966 1.94469Z" fill="white"/>
</svg>
