<svg width="15" height="15" viewBox="0 0 15 15" fill="none" xmlns="http://www.w3.org/2000/svg">
<path d="M6.42325 1.25519C6.33488 0.604158 6.79317 -0.00562088 7.44988 0.0139264C8.6496 0.0496368 9.82822 0.384033 10.8757 0.995194C12.2676 1.80736 13.3481 3.06163 13.9451 4.55852C14.5422 6.05542 14.6216 7.70897 14.1707 9.25618C13.7198 10.8034 12.7645 12.1554 11.4568 13.0972C10.1491 14.039 8.56395 14.5165 6.9536 14.4537C5.34325 14.391 3.80013 13.7915 2.56966 12.7508C1.3392 11.7101 0.492057 10.2878 0.162971 8.71017C-0.08467 7.523 -0.0282468 6.29917 0.318152 5.14999C0.507766 4.52094 1.23137 4.27956 1.82082 4.56973C2.41027 4.8599 2.63651 5.57362 2.49834 6.21593C2.35689 6.87341 2.35295 7.55749 2.49205 8.22434C2.71275 9.28238 3.2809 10.2363 4.10613 10.9342C4.93135 11.6322 5.96627 12.0342 7.04627 12.0763C8.12627 12.1184 9.18934 11.7982 10.0664 11.1666C10.9434 10.5349 11.5841 9.62818 11.8865 8.59052C12.1889 7.55286 12.1357 6.44389 11.7352 5.43998C11.3348 4.43607 10.6102 3.59488 9.67666 3.05019C9.0883 2.70689 8.43823 2.49381 7.76982 2.41956C7.11684 2.34703 6.51163 1.90622 6.42325 1.25519Z" fill="white"/>
</svg>
