<svg width="17" height="10" viewBox="0 0 17 10" fill="none" xmlns="http://www.w3.org/2000/svg">
<path d="M2 6.21191C2.5522 6.21191 2.99987 6.62903 3 7.14355V9.00781C2.99977 9.52226 2.55215 9.93945 2 9.93945H1C0.447854 9.93945 0.000225569 9.52226 0 9.00781V7.14355C0.000134763 6.62903 0.447798 6.21191 1 6.21191H2ZM6.66602 4.34863C7.2183 4.34863 7.66602 4.76564 7.66602 5.28027V9.00781C7.66579 9.52226 7.21816 9.93945 6.66602 9.93945H5.66602C5.11387 9.93945 4.66624 9.52226 4.66602 9.00781V5.28027C4.66602 4.76564 5.11373 4.34863 5.66602 4.34863H6.66602ZM11.334 2.1748C11.8863 2.1748 12.334 2.59182 12.334 3.10645V9.00781C12.3339 9.5224 11.8862 9.93945 11.334 9.93945H10.334C9.78173 9.93945 9.33403 9.5224 9.33398 9.00781V3.10645C9.33398 2.59182 9.7817 2.1748 10.334 2.1748H11.334ZM16 0C16.5522 0 16.9999 0.417093 17 0.931641V9.00781C16.9999 9.52233 16.5522 9.93945 16 9.93945H15C14.4478 9.93945 14.0001 9.52233 14 9.00781V0.931641C14.0001 0.417093 14.4478 0 15 0H16Z" fill="white"/>
</svg>
