<svg width="17" height="20" viewBox="0 0 17 20" fill="none" xmlns="http://www.w3.org/2000/svg">
<path d="M8.5 0L17 5V15L8.5 20L0 15V5L8.5 0ZM8.5 2.10091L1.78947 6.04818V13.9518L8.5 17.8991L15.2105 13.9518V6.04818L8.5 2.10091ZM8.5 13.6364C7.5508 13.6364 6.64048 13.2532 5.9693 12.5713C5.29812 11.8893 4.92105 10.9644 4.92105 10C4.92105 9.03558 5.29812 8.11065 5.9693 7.4287C6.64048 6.74675 7.5508 6.36364 8.5 6.36364C9.4492 6.36364 10.3595 6.74675 11.0307 7.4287C11.7019 8.11065 12.0789 9.03558 12.0789 10C12.0789 10.9644 11.7019 11.8893 11.0307 12.5713C10.3595 13.2532 9.4492 13.6364 8.5 13.6364ZM8.5 11.8182C8.9746 11.8182 9.42976 11.6266 9.76535 11.2856C10.1009 10.9447 10.2895 10.4822 10.2895 10C10.2895 9.51779 10.1009 9.05533 9.76535 8.71435C9.42976 8.37338 8.9746 8.18182 8.5 8.18182C8.0254 8.18182 7.57024 8.37338 7.23465 8.71435C6.89906 9.05533 6.71053 9.51779 6.71053 10C6.71053 10.4822 6.89906 10.9447 7.23465 11.2856C7.57024 11.6266 8.0254 11.8182 8.5 11.8182Z" fill="#BABABA"/>
</svg>
