<svg width="10" height="10" viewBox="0 0 10 10" fill="none" xmlns="http://www.w3.org/2000/svg">
<path d="M3.8238 1.58497C4.19847 1.21041 4.70656 1 5.23634 1C5.76612 1 6.27421 1.21041 6.64888 1.58497L8.41505 3.35114C8.78961 3.72581 9.00002 4.2339 9.00002 4.76368C9.00002 5.29346 8.78961 5.80155 8.41505 6.17622L6.64888 7.9424C6.27421 8.31695 5.76612 8.52737 5.23634 8.52737C4.70656 8.52737 4.19847 8.31695 3.8238 7.9424L2.05762 6.17622C1.68307 5.80155 1.47266 5.29346 1.47266 4.76368C1.47266 4.2339 1.68307 3.72581 2.05762 3.35114L3.8238 1.58497Z" fill="#A19999" stroke="#A09999" stroke-width="1.5" stroke-linecap="round" stroke-linejoin="round"/>
</svg>
