<svg width="14" height="19" viewBox="0 0 14 19" fill="none" xmlns="http://www.w3.org/2000/svg">
<path d="M5.84157 1.04093L5.89204 15.9787C5.89615 17.1964 5.89821 17.8065 5.5247 17.9578C5.1524 18.1104 5.38157 16.3577 4.4999 15.5L1.49989 11.5213M9.44942 17.9578L9.44942 1.88673M9.44942 1.88673C9.4453 0.669042 9.0759 2.03808 9.44942 1.88673ZM9.44942 1.88673C9.82172 1.73416 8.56774 1.02909 9.44942 1.88673ZM9.44942 1.88673L12.4999 7.00001" stroke="black" stroke-width="2" stroke-linecap="round" stroke-linejoin="round"/>
<path d="M5.84157 1.04093L5.89204 15.9787C5.89615 17.1964 5.89821 17.8065 5.5247 17.9578C5.1524 18.1104 5.38157 16.3577 4.4999 15.5L1.49989 11.5213M9.44942 17.9578L9.44942 1.88673M9.44942 1.88673C9.4453 0.669042 9.0759 2.03808 9.44942 1.88673ZM9.44942 1.88673C9.82172 1.73416 8.56774 1.02909 9.44942 1.88673ZM9.44942 1.88673L12.4999 7.00001" stroke="black" stroke-opacity="0.2" stroke-width="2" stroke-linecap="round" stroke-linejoin="round"/>
</svg>
