<svg width="22" height="16" viewBox="0 0 22 16" fill="none" xmlns="http://www.w3.org/2000/svg">
<path fill-rule="evenodd" clip-rule="evenodd" d="M3.14491 3.262C4.89491 1.577 7.47191 0 10.9549 0C14.4379 0 17.0149 1.577 18.7649 3.262C19.9906 4.45235 21.0053 5.84209 21.7659 7.372C21.9589 7.771 21.9589 8.229 21.7659 8.627C21.0057 10.1572 19.9913 11.5473 18.7659 12.738C17.0149 14.423 14.4379 16 10.9549 16C7.47191 16 4.89491 14.423 3.14491 12.738C1.91926 11.5476 0.90452 10.1579 0.143912 8.628C0.0492002 8.43237 0 8.21785 0 8.0005C0 7.78315 0.0492002 7.56863 0.143912 7.373C0.904121 5.8428 1.91953 4.45273 3.14491 3.262ZM10.9549 11C11.7506 11 12.5136 10.6839 13.0762 10.1213C13.6388 9.55871 13.9549 8.79565 13.9549 8C13.9549 7.20435 13.6388 6.44129 13.0762 5.87868C12.5136 5.31607 11.7506 5 10.9549 5C10.1593 5 9.3962 5.31607 8.83359 5.87868C8.27098 6.44129 7.95491 7.20435 7.95491 8C7.95491 8.79565 8.27098 9.55871 8.83359 10.1213C9.3962 10.6839 10.1593 11 10.9549 11Z" fill="white"/>
</svg>
