<svg width="11" height="22" viewBox="0 0 11 22" fill="none" xmlns="http://www.w3.org/2000/svg">
<path d="M0 3.05556V1.97389C0 1.43122 0.174167 0.966778 0.5225 0.580555C0.870833 0.194333 1.28883 0.000814815 1.7765 0H9.2235C9.7119 0 10.1299 0.193518 10.4775 0.580555C10.8251 0.967592 10.9993 1.43204 11 1.97389V3.05556H0ZM5.4978 14.6667C5.80287 14.6667 6.06283 14.5481 6.2777 14.311C6.49257 14.0739 6.6 13.7859 6.6 13.4469C6.6 13.1079 6.4933 12.8191 6.2799 12.5803C6.0665 12.3416 5.80727 12.2222 5.5022 12.2222C5.19713 12.2222 4.93717 12.3408 4.7223 12.5779C4.50743 12.815 4.4 13.103 4.4 13.442C4.4 13.781 4.5067 14.0698 4.7201 14.3086C4.9335 14.5473 5.19273 14.6667 5.4978 14.6667ZM2.2 20.0261V9.40133L0.2937 6.22844C0.193967 6.05652 0.1199 5.88133 0.0715001 5.70289C0.0238334 5.52363 0 5.33704 0 5.14311V4.27778H11V5.14311C11 5.33704 10.9762 5.52322 10.9285 5.70167C10.8801 5.88093 10.806 6.05652 10.7063 6.22844L8.8 9.40133V20.0261C8.8 20.5688 8.62583 21.0332 8.2775 21.4194C7.92917 21.8057 7.51117 21.9992 7.0235 22H3.9765C3.4881 22 3.0701 21.8065 2.7225 21.4194C2.3749 21.0324 2.20073 20.5671 2.2 20.0261Z" fill="white"/>
</svg>
