<svg width="23" height="18" viewBox="0 0 23 18" fill="none" xmlns="http://www.w3.org/2000/svg">
<path d="M0 3.99702C3.19929 1.4057 7.19292 -0.00566581 11.31 1.70949e-05C15.595 1.70949e-05 19.53 1.49702 22.62 3.99702L21.364 5.55302C18.5203 3.24888 14.97 1.99421 11.31 2.00002C7.5 2.00002 4.004 3.33002 1.256 5.55302L0 3.99702ZM3.141 7.88702C5.45176 6.0153 8.3363 4.99588 11.31 5.00002C14.2836 4.9956 17.1681 6.01466 19.479 7.88602L18.222 9.44202C16.267 7.85806 13.8261 6.99571 11.31 7.00002C8.692 7.00002 6.287 7.91502 4.398 9.44202L3.141 7.88702ZM6.283 11.777C7.70497 10.6251 9.48002 9.99766 11.31 10C13.214 10 14.963 10.665 16.337 11.776L15.08 13.332C14.0134 12.4686 12.6823 11.9983 11.31 12C9.882 12 8.57 12.499 7.54 13.332L6.283 11.777ZM9.425 15.667C9.95857 15.2357 10.6239 15.0003 11.31 15C12.024 15 12.68 15.25 13.195 15.666L11.31 18L9.425 15.667Z" fill="black"/>
</svg>
