<svg width="20" height="20" viewBox="0 0 20 20" fill="none" xmlns="http://www.w3.org/2000/svg">
<path d="M19.103 7.998C19.226 8.657 19.293 9.346 19.293 10.065C19.293 15.689 15.529 19.688 9.844 19.688C8.55112 19.6885 7.27081 19.4343 6.07624 18.9397C4.88168 18.4452 3.79627 17.7201 2.88207 16.8059C1.96786 15.8917 1.24278 14.8063 0.74826 13.6118C0.253739 12.4172 -0.000524855 11.1369 8.13413e-07 9.844C-0.000524855 8.55112 0.253739 7.27081 0.74826 6.07624C1.24278 4.88168 1.96786 3.79627 2.88207 2.88207C3.79627 1.96786 4.88168 1.24278 6.07624 0.74826C7.27081 0.253739 8.55112 -0.000524855 9.844 8.13413e-07C12.502 8.13413e-07 14.723 0.978001 16.427 2.566L13.652 5.341V5.334C12.619 4.35 11.308 3.845 9.844 3.845C6.596 3.845 3.956 6.589 3.956 9.838C3.956 13.087 6.596 15.837 9.844 15.837C12.791 15.837 14.797 14.151 15.209 11.837H9.844V7.998H19.103Z" fill="white"/>
</svg>
