<svg width="29" height="21" viewBox="0 0 29 21" fill="none" xmlns="http://www.w3.org/2000/svg">
<path d="M14.5005 8.25054H28.7882C27.3404 5.74197 25.2576 3.6588 22.7493 2.21049C20.2411 0.762189 17.3957 -0.000195941 14.4992 3.77744e-08C11.6028 0.000196017 8.75755 0.762966 6.24945 2.21161C3.74136 3.66026 1.65888 5.74371 0.211426 8.25248L7.35533 20.6262L7.35726 20.6272C6.63248 19.3731 6.25068 17.9504 6.25026 16.5019C6.24983 15.0535 6.6308 13.6305 7.35483 12.376C8.07887 11.1215 9.12046 10.0798 10.3748 9.35557C11.6292 8.63136 13.0522 8.2502 14.5006 8.25041L14.5005 8.25054Z" fill="#E33B2E"/>
</svg>
