<svg width="20" height="23" viewBox="0 0 20 23" fill="none" xmlns="http://www.w3.org/2000/svg">
<path d="M19.9641 5.7385C19.8047 5.106 19.1784 4.738 18.5521 4.876C15.8418 5.4855 12.8241 5.75 10 5.75C7.1759 5.75 4.15819 5.4855 1.44795 4.876C0.821634 4.738 0.195318 5.106 0.035892 5.7385C-0.123534 6.3825 0.263644 7.038 0.88996 7.1875C2.72336 7.6015 4.7048 7.889 6.58375 8.05V21.85C6.58375 22.4825 7.09619 23 7.7225 23C8.34882 23 8.86126 22.4825 8.86126 21.85V16.1H11.1388V21.85C11.1388 22.4825 11.6512 23 12.2775 23C12.9039 23 13.4163 22.4825 13.4163 21.85V8.05C15.2952 7.889 17.2767 7.6015 19.0987 7.1875C19.7364 7.038 20.1236 6.3825 19.9641 5.7385ZM10 4.6C11.2527 4.6 12.2775 3.565 12.2775 2.3C12.2775 1.035 11.2527 0 10 0C8.74739 0 7.7225 1.035 7.7225 2.3C7.7225 3.565 8.74739 4.6 10 4.6Z" fill="white"/>
</svg>
