<svg width="19" height="23" viewBox="0 0 19 23" fill="none" xmlns="http://www.w3.org/2000/svg">
<path d="M14.4146 0.00289805C14.5533 0.0201424 14.7182 -0.0345404 14.8413 0.0432862C15.1761 0.108633 15.4696 0.302519 15.705 0.544508C16.7051 1.54831 17.706 2.55121 18.7071 3.5541C18.8074 3.66154 18.9246 3.754 19.01 3.87517C17.8871 5.02328 16.7432 6.15052 15.6122 7.29057C15.2413 7.6577 14.8794 8.03424 14.5026 8.39535C14.0056 8.86435 13.5352 9.36081 13.0483 9.84058C10.8464 12.0531 8.63671 14.2575 6.43985 16.4751C5.41273 17.5177 4.37315 18.5485 3.34116 19.5863C2.22738 20.6992 1.11949 21.8186 0.00174282 22.9276C-0.00210874 20.4959 0.00174282 18.064 0.000949852 15.6327C0.00355532 15.1736 -0.00641342 14.7145 0.00944594 14.2558C0.00491469 14.1628 0.0746959 14.0894 0.0703912 13.9966C0.135301 13.8875 0.193188 13.7739 0.256286 13.6638C0.415106 13.4524 0.612555 13.2753 0.79675 13.0866C4.96335 8.90519 9.13119 4.72468 13.299 0.544054C13.4695 0.364803 13.6647 0.201889 13.9021 0.120659C14.0687 0.0648417 14.2335 -0.0163884 14.4146 0.00289805Z" fill="#EC5043"/>
</svg>
