<svg width="15" height="27" viewBox="0 0 15 27" fill="none" xmlns="http://www.w3.org/2000/svg">
<path d="M2.33558 2.76772C3.08165 2.02202 4.27269 1.62925 5.01015 0.875153C8.06591 3.95429 11.1346 7.02141 14.1976 10.0942C14.4735 10.3787 14.81 10.6406 14.9177 11.0421C15.023 11.3033 14.9908 11.588 14.9955 11.8627C14.996 16.3617 14.9951 20.8604 14.9962 25.359C15.0641 26.2467 14.219 27.0759 13.3364 27.0054C11.7423 27.0054 10.1486 27.0058 8.55438 27.0054C8.54792 24.8556 8.55551 22.7058 8.55008 20.5561C8.55393 18.1926 8.55178 15.8295 8.55098 13.4666C6.56143 11.4772 4.57617 9.48338 2.58786 7.49302C1.89435 6.79235 1.18997 6.1019 0.502808 5.39533C0.879581 5.03411 1.94578 3.1572 2.3357 2.76761" fill="#4586F7"/>
</svg>
