<svg width="23" height="18" viewBox="0 0 23 18" fill="none" xmlns="http://www.w3.org/2000/svg">
<path d="M0 3.99701C3.25304 1.4057 7.31375 -0.0056658 11.5 1.70949e-05C15.857 1.70949e-05 19.8581 1.49702 23 3.99701L21.0833 6.33001C18.3724 4.17076 14.9885 2.99491 11.5 3.00001C7.87003 3.00001 4.53492 4.24801 1.91667 6.33001L0 3.99701ZM3.19377 7.88701C5.54335 6.0153 8.47634 4.99588 11.5 5.00001C14.5235 4.9956 17.4565 6.01466 19.8062 7.88601L17.8886 10.22C16.0814 8.78058 13.8255 7.99668 11.5 8.00001C9.08002 8.00001 6.85628 8.83201 5.11043 10.22L3.19377 7.88701ZM6.38855 11.777C7.83441 10.6251 9.63928 9.99765 11.5 10C13.436 10 15.2144 10.665 16.6115 11.776L14.6948 14.11C13.7911 13.3902 12.6629 12.9982 11.5 13C10.29 13 9.17865 13.416 8.30522 14.11L6.38855 11.777ZM9.58333 15.667C10.1259 15.2357 10.8024 15.0002 11.5 15C12.226 15 12.893 15.25 13.4167 15.666L11.5 18L9.58333 15.667Z" fill="white"/>
</svg>
