<svg width="13" height="13" viewBox="0 0 13 13" fill="none" xmlns="http://www.w3.org/2000/svg">
<path fill-rule="evenodd" clip-rule="evenodd" d="M4 0C3.73478 0 3.48043 0.105357 3.29289 0.292893C3.10536 0.48043 3 0.734784 3 1V11H1C0.734784 11 0.48043 11.1054 0.292893 11.2929C0.105357 11.4804 0 11.7348 0 12C0 12.2652 0.105357 12.5196 0.292893 12.7071C0.48043 12.8946 0.734784 13 1 13H12C12.2652 13 12.5196 12.8946 12.7071 12.7071C12.8946 12.5196 13 12.2652 13 12V1C13 0.734784 12.8946 0.48043 12.7071 0.292893C12.5196 0.105357 12.2652 0 12 0H4ZM8 10C7.46957 10 6.96086 9.78929 6.58579 9.41421C6.21071 9.03914 6 8.53043 6 8C6 7.46957 6.21071 6.96086 6.58579 6.58579C6.96086 6.21071 7.46957 6 8 6C8.53043 6 9.03914 6.21071 9.41421 6.58579C9.78929 6.96086 10 7.46957 10 8C10 8.53043 9.78929 9.03914 9.41421 9.41421C9.03914 9.78929 8.53043 10 8 10Z" fill="white"/>
</svg>
