<svg width="20" height="19" viewBox="0 0 20 19" fill="none" xmlns="http://www.w3.org/2000/svg">
<path d="M14.5408 9.5C14.5408 10.7598 14.0302 11.968 13.1212 12.8588C12.2122 13.7496 10.9794 14.25 9.69388 14.25C8.40839 14.25 7.17555 13.7496 6.26657 12.8588C5.3576 11.968 4.84694 10.7598 4.84694 9.5C4.84694 8.24022 5.3576 7.03204 6.26657 6.14124C7.17555 5.25044 8.40839 4.75 9.69388 4.75C10.9794 4.75 12.2122 5.25044 13.1212 6.14124C14.0302 7.03204 14.5408 8.24022 14.5408 9.5ZM9.69388 0C9.85456 0 10.0087 0.0625556 10.1223 0.173905C10.2359 0.285255 10.2997 0.436278 10.2997 0.59375V2.96875C10.2997 3.12622 10.2359 3.27724 10.1223 3.38859C10.0087 3.49994 9.85456 3.5625 9.69388 3.5625C9.53319 3.5625 9.37909 3.49994 9.26546 3.38859C9.15184 3.27724 9.08801 3.12622 9.08801 2.96875V0.59375C9.08801 0.436278 9.15184 0.285255 9.26546 0.173905C9.37909 0.0625556 9.53319 0 9.69388 0ZM9.69388 15.4375C9.85456 15.4375 10.0087 15.5001 10.1223 15.6114C10.2359 15.7228 10.2997 15.8738 10.2997 16.0312V18.4062C10.2997 18.5637 10.2359 18.7147 10.1223 18.8261C10.0087 18.9374 9.85456 19 9.69388 19C9.53319 19 9.37909 18.9374 9.26546 18.8261C9.15184 18.7147 9.08801 18.5637 9.08801 18.4062V16.0312C9.08801 15.8738 9.15184 15.7228 9.26546 15.6114C9.37909 15.5001 9.53319 15.4375 9.69388 15.4375ZM19.3878 9.5C19.3878 9.65747 19.3239 9.8085 19.2103 9.91985C19.0967 10.0312 18.9426 10.0938 18.7819 10.0938H16.3584C16.1977 10.0938 16.0436 10.0312 15.93 9.91985C15.8164 9.8085 15.7526 9.65747 15.7526 9.5C15.7526 9.34253 15.8164 9.19151 15.93 9.08016C16.0436 8.96881 16.1977 8.90625 16.3584 8.90625H18.7819C18.9426 8.90625 19.0967 8.96881 19.2103 9.08016C19.3239 9.19151 19.3878 9.34253 19.3878 9.5ZM3.6352 9.5C3.6352 9.65747 3.57137 9.8085 3.45775 9.91985C3.34413 10.0312 3.19002 10.0938 3.02934 10.0938H0.605867C0.445181 10.0938 0.291077 10.0312 0.177454 9.91985C0.0638323 9.8085 0 9.65747 0 9.5C0 9.34253 0.0638323 9.19151 0.177454 9.08016C0.291077 8.96881 0.445181 8.90625 0.605867 8.90625H3.02934C3.19002 8.90625 3.34413 8.96881 3.45775 9.08016C3.57137 9.19151 3.6352 9.34253 3.6352 9.5ZM16.5487 2.78231C16.6622 2.89366 16.726 3.04465 16.726 3.20209C16.726 3.35953 16.6622 3.51053 16.5487 3.62188L14.8353 5.30219C14.7789 5.35731 14.7121 5.40103 14.6385 5.43083C14.5649 5.46064 14.4861 5.47595 14.4065 5.47589C14.2457 5.47578 14.0916 5.41308 13.978 5.30159C13.9217 5.24639 13.8771 5.18087 13.8467 5.10877C13.8163 5.03667 13.8007 4.95941 13.8007 4.88139C13.8008 4.72383 13.8648 4.57277 13.9786 4.46144L15.692 2.78231C15.8056 2.671 15.9597 2.60847 16.1203 2.60847C16.281 2.60847 16.435 2.671 16.5487 2.78231ZM5.40918 13.699C5.52277 13.8103 5.58657 13.9613 5.58657 14.1188C5.58657 14.2762 5.52277 14.4272 5.40918 14.5386L3.69579 16.2177C3.58152 16.3258 3.42848 16.3857 3.26962 16.3843C3.11077 16.383 2.95881 16.3205 2.84647 16.2105C2.73414 16.1004 2.67042 15.9514 2.66904 15.7958C2.66766 15.6401 2.72873 15.4901 2.83909 15.3781L4.55249 13.699C4.6661 13.5877 4.82018 13.5252 4.98083 13.5252C5.14149 13.5252 5.29557 13.5877 5.40918 13.699ZM16.5487 16.2177C16.435 16.329 16.281 16.3915 16.1203 16.3915C15.9597 16.3915 15.8056 16.329 15.692 16.2177L13.9786 14.5386C13.8682 14.4266 13.8071 14.2766 13.8085 14.1209C13.8099 13.9652 13.8736 13.8163 13.986 13.7062C14.0983 13.5961 14.2502 13.5337 14.4091 13.5324C14.568 13.531 14.721 13.5908 14.8353 13.699L16.5487 15.3781C16.6622 15.4895 16.726 15.6405 16.726 15.7979C16.726 15.9553 16.6622 16.1063 16.5487 16.2177ZM5.40918 5.30219C5.29557 5.4135 5.14149 5.47603 4.98083 5.47603C4.82018 5.47603 4.6661 5.4135 4.55249 5.30219L2.83909 3.62188C2.78123 3.5671 2.73507 3.50159 2.70332 3.42915C2.67157 3.35671 2.65485 3.27879 2.65415 3.19996C2.65345 3.12112 2.66878 3.04293 2.69925 2.96996C2.72971 2.897 2.7747 2.8307 2.83158 2.77495C2.88847 2.7192 2.95612 2.67512 3.03058 2.64526C3.10504 2.61541 3.18482 2.60038 3.26526 2.60107C3.34571 2.60176 3.42521 2.61813 3.49913 2.64925C3.57305 2.68037 3.6399 2.7256 3.69579 2.78231L5.40918 4.46144C5.46561 4.51659 5.51037 4.58211 5.54091 4.65425C5.57146 4.72638 5.58718 4.80371 5.58718 4.88181C5.58718 4.95991 5.57146 5.03724 5.54091 5.10938C5.51037 5.18151 5.46561 5.24703 5.40918 5.30219Z" fill="white"/>
</svg>
