<svg width="17" height="17" viewBox="0 0 17 17" fill="none" xmlns="http://www.w3.org/2000/svg">
<path fill-rule="evenodd" clip-rule="evenodd" d="M7.74149 0.00121662C6.40303 0.121147 5.11203 0.557442 3.97446 1.27429C2.83688 1.99114 1.88515 2.96811 1.19739 4.12501C0.509635 5.28191 0.105449 6.58576 0.0180109 7.92955C-0.0694275 9.27333 0.162375 10.6187 0.694391 11.8553C1.22641 13.092 2.04347 14.1845 3.07852 15.0433C4.11357 15.9021 5.3371 16.5027 6.64868 16.7958C7.96026 17.0889 9.3225 17.0662 10.6236 16.7294C11.9247 16.3926 13.1276 15.7515 14.1334 14.8585L7.97822 9.03581C7.90388 8.96438 7.84469 8.87863 7.80422 8.78372C7.76375 8.68881 7.74282 8.58668 7.7427 8.48346L7.74149 0.00121662ZM15.1763 13.7538C16.1241 12.5487 16.7293 11.1094 16.9281 9.58806C17.1269 8.06668 16.9118 6.51974 16.3056 5.11074C15.6994 3.70175 14.7246 2.48305 13.4843 1.58344C12.2439 0.683833 10.7841 0.136745 9.25905 0V8.15619L15.1763 13.7538Z" fill="white"/>
</svg>
