<svg width="21" height="16" viewBox="0 0 21 16" fill="none" xmlns="http://www.w3.org/2000/svg">
<path d="M15.4142 0C16.5012 0 17.3357 0.843 17.9539 1.75L18.1633 2.071L18.355 2.391C18.4159 2.49567 18.4742 2.59833 18.5299 2.699C19.3034 4.106 19.9767 5.943 20.4219 7.758C20.8642 9.559 21.109 11.44 20.9527 12.919C20.7954 14.404 20.0435 16 18.3628 16C16.8551 16 15.6668 15.18 14.7016 14.379L13.6106 13.448C12.7034 12.692 11.7107 12 10.4998 12C9.28891 12 8.29522 12.692 7.38999 13.448L6.299 14.378C5.33185 15.18 4.14355 16 2.6368 16C0.955101 16 0.203201 14.404 0.0469235 12.919C-0.108371 11.439 0.135382 9.559 0.577676 7.758C1.02292 5.943 1.69619 4.106 2.46971 2.699L2.64466 2.39L2.83633 2.071L3.04568 1.75C3.66391 0.843 4.49837 0 5.58543 0C6.0867 0 6.58501 0.124 7.07449 0.27L7.65733 0.452C7.75365 0.482 7.84932 0.510667 7.94433 0.538C8.79452 0.786 9.66436 1 10.4998 1C11.3353 1 12.2051 0.786 13.0553 0.538L13.9251 0.271C14.4146 0.124 14.9129 0 15.4142 0ZM7.05974 4C6.40806 4 5.78306 4.26339 5.32225 4.73223C4.86143 5.20107 4.60255 5.83696 4.60255 6.5C4.60255 7.16304 4.86143 7.79893 5.32225 8.26777C5.78306 8.73661 6.40806 9 7.05974 9C7.71143 9 8.33643 8.73661 8.79724 8.26777C9.25805 7.79893 9.51693 7.16304 9.51693 6.5C9.51693 5.83696 9.25805 5.20107 8.79724 4.73223C8.33643 4.26339 7.71143 4 7.05974 4ZM13.9399 4C13.6792 4 13.4292 4.10536 13.2449 4.29289C13.0606 4.48043 12.957 4.73478 12.957 5V5.5H12.4656C12.2049 5.5 11.9549 5.60536 11.7706 5.79289C11.5862 5.98043 11.4827 6.23478 11.4827 6.5C11.4827 6.76522 11.5862 7.01957 11.7706 7.20711C11.9549 7.39464 12.2049 7.5 12.4656 7.5H12.957V8C12.957 8.26522 13.0606 8.51957 13.2449 8.70711C13.4292 8.89464 13.6792 9 13.9399 9C14.2005 9 14.4505 8.89464 14.6349 8.70711C14.8192 8.51957 14.9228 8.26522 14.9228 8V7.5H15.4142C15.6749 7.5 15.9249 7.39464 16.1092 7.20711C16.2935 7.01957 16.3971 6.76522 16.3971 6.5C16.3971 6.23478 16.2935 5.98043 16.1092 5.79289C15.9249 5.60536 15.6749 5.5 15.4142 5.5H14.9228V5C14.9228 4.73478 14.8192 4.48043 14.6349 4.29289C14.4505 4.10536 14.2005 4 13.9399 4ZM7.05974 6C7.19008 6 7.31508 6.05268 7.40724 6.14645C7.4994 6.24021 7.55118 6.36739 7.55118 6.5C7.55118 6.63261 7.4994 6.75979 7.40724 6.85355C7.31508 6.94732 7.19008 7 7.05974 7C6.92941 7 6.80441 6.94732 6.71224 6.85355C6.62008 6.75979 6.56831 6.63261 6.56831 6.5C6.56831 6.36739 6.62008 6.24021 6.71224 6.14645C6.80441 6.05268 6.92941 6 7.05974 6Z" fill="white"/>
</svg>
