<svg width="17" height="26" viewBox="0 0 17 26" fill="none" xmlns="http://www.w3.org/2000/svg">
<path d="M0.501133 25.9992C2.668 25.9996 4.81372 25.5731 6.8157 24.744C8.81769 23.9149 10.6367 22.6995 12.1689 21.1673C13.7011 19.6351 14.9163 17.816 15.7453 15.814C16.5743 13.812 17.0007 11.6662 17.0002 9.49938C16.9996 6.603 16.2365 3.75781 14.7878 1.24979C11.662 0.941701 9.3552 0.787659 7.86727 0.787659C6.18013 0.787659 3.72437 0.941701 0.499974 1.24979L0.498169 1.25108C1.94662 1.25036 3.36972 1.63105 4.62435 2.35487C5.87897 3.07869 6.92089 4.12011 7.64529 5.37439C8.36973 6.62867 8.75112 8.05159 8.7511 9.50004C8.75107 10.9485 8.36964 12.3714 7.64516 13.6257L0.501133 25.9992Z" fill="#FBC116"/>
</svg>
