<svg width="1" height="1" viewBox="0 0 1 1" fill="none" xmlns="http://www.w3.org/2000/svg">
<path d="M0.592928 0.257999L0.581927 0.26L0.510927 0.295L0.490928 0.298999L0.476928 0.295L0.405928 0.26C0.395261 0.256667 0.387261 0.258332 0.381927 0.264999L0.377928 0.274999L0.360928 0.702999L0.365928 0.722999L0.375928 0.736L0.479927 0.809999L0.494927 0.813999L0.506927 0.809999L0.610928 0.736L0.622928 0.719999L0.626927 0.702999L0.609927 0.275999C0.607261 0.265332 0.601595 0.259332 0.592928 0.257999ZM0.857927 0.145L0.844928 0.146999L0.659927 0.239999L0.649927 0.25L0.646928 0.260999L0.664927 0.691L0.669928 0.702999L0.677928 0.709999L0.878927 0.802999C0.891594 0.806333 0.901261 0.803666 0.907928 0.795L0.911927 0.781L0.877928 0.167C0.874594 0.155 0.867927 0.147667 0.857927 0.145ZM0.142927 0.146999C0.13852 0.144328 0.133254 0.143463 0.128223 0.144581C0.123193 0.145698 0.118789 0.148714 0.115928 0.153L0.109927 0.167L0.0759277 0.781C0.0765944 0.793 0.0822613 0.801 0.0929279 0.805L0.107927 0.802999L0.308928 0.709999L0.318928 0.701999L0.322927 0.691L0.339928 0.260999L0.336927 0.249L0.326927 0.239L0.142927 0.146999Z" fill="white"/>
</svg>
