<svg width="17" height="19" viewBox="0 0 17 19" fill="none" xmlns="http://www.w3.org/2000/svg">
<path d="M16.7167 3.64723L8.68889 0.0426038C8.6298 0.014547 8.5653 0 8.5 0C8.4347 0 8.3702 0.014547 8.31111 0.0426038L0.283334 3.64723C0.200325 3.68379 0.12948 3.74369 0.0792447 3.81977C0.029009 3.89586 0.0015011 3.98492 0 4.07635V6.63201C0 11.3237 2.77667 17.0072 8.33 18.9717C8.44024 19.0094 8.55976 19.0094 8.67 18.9717C14.2233 17.0072 17 11.3237 17 6.63201V4.07635C16.9985 3.98492 16.971 3.89586 16.9208 3.81977C16.8705 3.74369 16.7997 3.68379 16.7167 3.64723ZM12.9276 6.80366L7.94089 13.2138C7.86841 13.3062 7.77745 13.3822 7.67396 13.4367C7.57047 13.4913 7.45675 13.5232 7.34022 13.5304L7.29111 13.5323C7.07153 13.5319 6.86101 13.4438 6.70556 13.2872L4.13667 10.6934C3.98174 10.5366 3.89486 10.3241 3.89512 10.1026C3.89539 9.88111 3.98278 9.6688 4.13808 9.51238C4.29338 9.35595 4.50386 9.26822 4.72322 9.26849C4.94258 9.26876 5.15285 9.357 5.30778 9.51381L7.21744 11.442L11.628 5.77282C11.7659 5.60597 11.9627 5.49995 12.1768 5.47724C12.3908 5.45453 12.6052 5.51692 12.7744 5.65118C12.9436 5.78544 13.0544 5.98099 13.0831 6.19634C13.1119 6.41169 13.0564 6.62988 12.9285 6.80462L12.9276 6.80366Z" fill="white"/>
</svg>
