<svg width="12" height="18" viewBox="0 0 12 18" fill="none" xmlns="http://www.w3.org/2000/svg">
<path d="M4.95213 1.02026L4.99979 15.1295C5.00368 16.2797 5.00562 16.8559 4.66839 16.9988C4.33224 17.1428 4.53892 15.4874 3.74271 14.6772L1.03333 10.9187M8.21216 16.9993L8.21104 9.40949L8.20991 1.81966M8.20991 1.81966C8.20602 0.669512 7.87267 1.96256 8.20991 1.81966ZM8.20991 1.81966C8.54605 1.67561 7.41369 1.00946 8.20991 1.81966ZM8.20991 1.81966L10.965 6.64975" stroke="white" stroke-width="2" stroke-linecap="round" stroke-linejoin="round"/>
<path d="M4.95213 1.02026L4.99979 15.1295C5.00368 16.2797 5.00562 16.8559 4.66839 16.9988C4.33224 17.1428 4.53892 15.4874 3.74271 14.6772L1.03333 10.9187M8.21216 16.9993L8.21104 9.40949L8.20991 1.81966M8.20991 1.81966C8.20602 0.669512 7.87267 1.96256 8.20991 1.81966ZM8.20991 1.81966C8.54605 1.67561 7.41369 1.00946 8.20991 1.81966ZM8.20991 1.81966L10.965 6.64975" stroke="black" stroke-opacity="0.2" stroke-width="2" stroke-linecap="round" stroke-linejoin="round"/>
</svg>
