<svg width="17" height="18" viewBox="0 0 17 18" fill="none" xmlns="http://www.w3.org/2000/svg">
<path d="M11.437 12.8438L8.91223 15.9463C8.03908 17.0193 6.91665 17.6259 5.54496 17.7663C4.17326 17.9066 2.95099 17.5407 1.87813 16.6685C0.805279 15.7963 0.198627 14.6738 0.0581764 13.3012C-0.0822743 11.9286 0.283654 10.7063 1.15596 9.63438L3.68073 6.53187L5.23198 7.79426L2.70721 10.8968C2.18122 11.5431 1.96035 12.2766 2.0446 13.0973C2.12886 13.9179 2.49416 14.5912 3.14052 15.1172C3.78687 15.6432 4.52037 15.8641 5.34102 15.7798C6.16166 15.6956 6.83498 15.3303 7.36097 14.6839L9.88574 11.5814L11.437 12.8438ZM6.44091 12.6459L4.88966 11.3835L9.9392 5.17851L11.4905 6.44089L6.44091 12.6459ZM12.6994 11.2925L11.1481 10.0302L13.6729 6.92765C14.1989 6.2813 14.4198 5.5478 14.3355 4.72715C14.2513 3.90651 13.8859 3.23319 13.2396 2.7072C12.5932 2.1812 11.8597 1.96033 11.0391 2.04459C10.2184 2.12884 9.54513 2.49414 9.01914 3.1405L6.49437 6.24301L4.94311 4.98062L7.46788 1.87812C8.34103 0.805165 9.46367 0.198256 10.8358 0.0573839C12.2079 -0.0834883 13.43 0.282699 14.502 1.15594C15.574 2.02919 16.1809 3.15182 16.3227 4.52384C16.4645 5.89586 16.0983 7.11793 15.2241 8.19004L12.6994 11.2925Z" fill="white"/>
</svg>
