<svg width="14" height="22" viewBox="0 0 14 22" fill="none" xmlns="http://www.w3.org/2000/svg">
<path d="M14 19.25C14 19.9793 13.705 20.6788 13.1799 21.1945C12.6548 21.7103 11.9426 22 11.2 22H2.8C2.05739 22 1.3452 21.7103 0.820102 21.1945C0.295 20.6788 0 19.9793 0 19.25V2.75C0 2.02065 0.295 1.32118 0.820102 0.805456C1.3452 0.289732 2.05739 0 2.8 0H11.2C11.9426 0 12.6548 0.289732 13.1799 0.805456C13.705 1.32118 14 2.02065 14 2.75V19.25ZM10.5 19.25C10.6857 19.25 10.8637 19.1776 10.995 19.0486C11.1263 18.9197 11.2 18.7448 11.2 18.5625C11.2 18.3802 11.1263 18.2053 10.995 18.0764C10.8637 17.9474 10.6857 17.875 10.5 17.875H3.5C3.31435 17.875 3.1363 17.9474 3.00502 18.0764C2.87375 18.2053 2.8 18.3802 2.8 18.5625C2.8 18.7448 2.87375 18.9197 3.00502 19.0486C3.1363 19.1776 3.31435 19.25 3.5 19.25H10.5Z" fill="white"/>
</svg>
