<svg width="18" height="19" viewBox="0 0 18 19" fill="none" xmlns="http://www.w3.org/2000/svg">
<path d="M8.993 11.407L7.441 12.959C7.93786 13.7963 8.11231 14.786 7.93164 15.7427C7.75097 16.6993 7.22759 17.5573 6.4596 18.1557C5.69162 18.7541 4.73175 19.0518 3.75994 18.9931C2.78812 18.9344 1.87108 18.5233 1.1807 17.8368C0.49033 17.1503 0.0740243 16.2356 0.00982451 15.2641C-0.0543753 14.2927 0.237938 13.3311 0.831971 12.5598C1.426 11.7884 2.28097 11.2602 3.23661 11.0741C4.19225 10.888 5.18295 11.0569 6.023 11.549L7.578 9.993L4.454 6.868C4.17279 6.58671 4.01482 6.20525 4.01482 5.8075C4.01482 5.40975 4.17279 5.02829 4.454 4.747L4.808 4.393L8.993 8.578L13.182 4.389L13.535 4.743C13.8159 5.02425 13.9737 5.4055 13.9737 5.803C13.9737 6.2005 13.8159 6.58175 13.535 6.863L10.407 9.993L11.968 11.553C12.8067 11.0585 13.7969 10.8869 14.753 11.0702C15.7092 11.2536 16.5657 11.7794 17.1619 12.5491C17.7581 13.3188 18.0531 14.2795 17.9917 15.2511C17.9302 16.2228 17.5165 17.1386 16.8281 17.8271C16.1396 18.5155 15.2238 18.9292 14.2521 18.9907C13.2805 19.0521 12.3198 18.7571 11.5501 18.1609C10.7804 17.5647 10.2546 16.7082 10.0712 15.752C9.88786 14.7959 10.0595 13.8057 10.554 12.967L8.993 11.407ZM16 10V2H2V10H0V1C0 0.734784 0.105357 0.48043 0.292893 0.292893C0.48043 0.105357 0.734784 0 1 0H17C17.2652 0 17.5196 0.105357 17.7071 0.292893C17.8946 0.48043 18 0.734784 18 1V10H16ZM4 17C4.53043 17 5.03914 16.7893 5.41421 16.4142C5.78929 16.0391 6 15.5304 6 15C6 14.4696 5.78929 13.9609 5.41421 13.5858C5.03914 13.2107 4.53043 13 4 13C3.46957 13 2.96086 13.2107 2.58579 13.5858C2.21071 13.9609 2 14.4696 2 15C2 15.5304 2.21071 16.0391 2.58579 16.4142C2.96086 16.7893 3.46957 17 4 17ZM14 17C14.5304 17 15.0391 16.7893 15.4142 16.4142C15.7893 16.0391 16 15.5304 16 15C16 14.4696 15.7893 13.9609 15.4142 13.5858C15.0391 13.2107 14.5304 13 14 13C13.4696 13 12.9609 13.2107 12.5858 13.5858C12.2107 13.9609 12 14.4696 12 15C12 15.5304 12.2107 16.0391 12.5858 16.4142C12.9609 16.7893 13.4696 17 14 17Z" fill="white"/>
</svg>
