<svg width="24" height="25" viewBox="0 0 24 25" fill="none" xmlns="http://www.w3.org/2000/svg">
<path d="M4.62651 3.98778C3.94159 2.80142 3.13652 1.55631 2.21131 0.252472C0.762873 2.76065 0.000293341 5.60595 0.000244143 8.5023C0.000194945 11.3987 0.762678 14.244 2.21103 16.7522C3.65939 19.2604 5.74256 21.3431 8.25111 22.791C10.7597 24.2388 13.6052 25.0006 16.5016 25C18.0202 22.87 19.0513 21.3343 19.5948 20.3929C20.6388 18.5846 21.989 15.9957 23.6455 12.6262V12.6242C22.9218 13.8789 21.8805 14.9209 20.6264 15.6455C19.3722 16.37 17.9494 16.7516 16.501 16.7519C15.0526 16.7521 13.6296 16.3709 12.3752 15.6467C11.1209 14.9226 10.0793 13.8809 9.35521 12.6264C7.10553 8.43078 5.52929 5.55115 4.62651 3.98778Z" fill="#229342"/>
</svg>
