<svg width="16" height="11" viewBox="0 0 16 11" fill="none" xmlns="http://www.w3.org/2000/svg">
<path d="M5.42774 7.82791C6.70329 6.8226 8.57112 6.82264 9.84669 7.82791C9.91086 7.88198 9.94843 7.95824 9.9502 8.03885C9.95188 8.11935 9.91813 8.19729 9.85645 8.25369L7.85938 10.1316C7.80089 10.1868 7.7209 10.2175 7.6377 10.2176C7.55448 10.2176 7.47456 10.1867 7.41602 10.1316L5.41797 8.25369C5.35636 8.19726 5.32251 8.11932 5.32422 8.03885C5.32605 7.95833 5.36366 7.88193 5.42774 7.82791ZM2.7627 5.32205C5.5109 2.93996 9.76646 2.93996 12.5147 5.32205C12.5766 5.37789 12.6124 5.45463 12.6133 5.53494C12.6141 5.61518 12.5802 5.69285 12.5195 5.74978L11.3643 6.8367C11.2453 6.94734 11.0536 6.94947 10.9316 6.84158C10.0293 6.08015 8.85508 5.65896 7.6377 5.65896C6.42104 5.65943 5.24757 6.08062 4.34571 6.84158C4.22365 6.94965 4.0311 6.94771 3.91212 6.8367L2.75782 5.74978C2.69696 5.69292 2.66335 5.61523 2.66407 5.53494C2.66488 5.45455 2.70065 5.3779 2.7627 5.32205ZM0.0966853 2.82302C4.31179 -0.940963 10.9617 -0.941054 15.1768 2.82302C15.2376 2.87892 15.272 2.95534 15.2725 3.03494C15.2729 3.11464 15.239 3.19128 15.1787 3.24783L14.0225 4.33474C13.9033 4.44614 13.7107 4.44746 13.5898 4.33767C11.9839 2.91502 9.85256 2.12197 7.63672 2.12185C5.42061 2.12185 3.28877 2.91488 1.68262 4.33767C1.56181 4.44763 1.36904 4.44635 1.25001 4.33474L0.0937556 3.24783C0.0335391 3.19125 -0.000502918 3.11462 5.61702e-06 3.03494C0.000568646 2.95519 0.0356267 2.8789 0.0966853 2.82302Z" fill="white"/>
</svg>
