<svg width="34" height="34" viewBox="0 0 34 34" fill="none" xmlns="http://www.w3.org/2000/svg">
<g filter="url(#filter0_d_1_14)">
<path d="M16.7666 2.00001C17.8323 1.99805 18.8746 2.31215 19.7618 2.90259C20.649 3.49302 21.3411 4.33328 21.7508 5.3171C22.1604 6.30092 22.2691 7.38412 22.0631 8.42972C21.8571 9.47531 21.3457 10.4363 20.5936 11.1913C19.8414 11.9462 18.8822 12.4612 17.8374 12.671C16.7926 12.8808 15.709 12.7761 14.7237 12.3701C13.7383 11.9641 12.8955 11.275 12.3018 10.39C11.7081 9.50504 11.3902 8.46386 11.3882 7.39817V7.38826C11.3882 5.96092 11.9546 4.5919 12.9629 3.58169C13.9713 2.57148 15.3392 2.00264 16.7666 2.00001ZM16.7666 14.7732C22.7866 14.7732 27.5332 18.7825 27.5332 20.7792V23.5833H6V20.7291C6 18.7323 10.746 14.7732 16.7666 14.7732Z" stroke="#84B4E4" stroke-width="3" stroke-linecap="round" stroke-linejoin="round" shape-rendering="crispEdges"/>
</g>
<defs>
<filter id="filter0_d_1_14" x="0.5" y="0.5" width="32.5332" height="32.5834" filterUnits="userSpaceOnUse" color-interpolation-filters="sRGB">
<feFlood flood-opacity="0" result="BackgroundImageFix"/>
<feColorMatrix in="SourceAlpha" type="matrix" values="0 0 0 0 0 0 0 0 0 0 0 0 0 0 0 0 0 0 127 0" result="hardAlpha"/>
<feOffset dy="4"/>
<feGaussianBlur stdDeviation="2"/>
<feComposite in2="hardAlpha" operator="out"/>
<feColorMatrix type="matrix" values="0 0 0 0 0 0 0 0 0 0 0 0 0 0 0 0 0 0 0.25 0"/>
<feBlend mode="normal" in2="BackgroundImageFix" result="effect1_dropShadow_1_14"/>
<feBlend mode="normal" in="SourceGraphic" in2="effect1_dropShadow_1_14" result="shape"/>
</filter>
</defs>
</svg>
