<svg width="15" height="22" viewBox="0 0 15 22" fill="none" xmlns="http://www.w3.org/2000/svg">
<path d="M8.9541 6H6.9541V8H8.9541V6ZM7.9541 10C7.4041 10 6.9541 10.45 6.9541 11V15C6.9541 15.55 7.4041 16 7.9541 16C8.5041 16 8.9541 15.55 8.9541 15V11C8.9541 10.45 8.5041 10 7.9541 10ZM12.9541 0.00999999L2.9541 0C1.8541 0 0.954102 0.9 0.954102 2V20C0.954102 21.1 1.8541 22 2.9541 22H12.9541C14.0541 22 14.9541 21.1 14.9541 20V2C14.9541 0.9 14.0541 0.00999999 12.9541 0.00999999ZM12.9541 18H2.9541V4H12.9541V18Z" fill="black"/>
</svg>
