<svg width="22" height="22" viewBox="0 0 22 22" fill="none" xmlns="http://www.w3.org/2000/svg">
<path d="M10.6006 0.169985C10.7913 2.89292 11.971 5.45216 13.9176 7.36564C15.8642 9.27912 18.4434 10.4148 21.1692 10.5586L21.1695 10.6006C18.4465 10.791 15.8871 11.9706 13.9735 13.9173C12.06 15.864 10.9244 18.4433 10.7809 21.1692L10.7389 21.1696C10.5485 18.4465 9.36888 15.8871 7.4222 13.9736C5.47552 12.06 2.89622 10.9245 0.170304 10.7809L0.169943 10.7389C2.89288 10.5483 5.45212 9.3685 7.3656 7.42189C9.27908 5.47527 10.4147 2.89615 10.5586 0.170345L10.6006 0.169985Z" fill="url(#paint0_linear_1_833)"/>
<defs>
<linearGradient id="paint0_linear_1_833" x1="0.170124" y1="10.7599" x2="21.1694" y2="10.5796" gradientUnits="userSpaceOnUse">
<stop stop-color="#C144FF"/>
<stop offset="0.408654" stop-color="#5067D5"/>
<stop offset="0.5" stop-color="#5788DA"/>
<stop offset="0.75" stop-color="#3061B3"/>
<stop offset="0.875" stop-color="#2C5AA6"/>
<stop offset="1" stop-color="#295399"/>
</linearGradient>
</defs>
</svg>
