<svg width="23" height="32" viewBox="0 0 23 32" fill="none" xmlns="http://www.w3.org/2000/svg">
<path d="M11.5 25.7512C9.91875 25.7512 8.625 27.0388 8.625 28.6124C8.625 30.1861 9.91875 31.4737 11.5 31.4737C13.0813 31.4737 14.375 30.1861 14.375 28.6124C14.375 27.0388 13.0813 25.7512 11.5 25.7512ZM2.875 0C1.29375 0 0 1.28756 0 2.86124C0 4.43493 1.29375 5.72249 2.875 5.72249C4.45625 5.72249 5.75 4.43493 5.75 2.86124C5.75 1.28756 4.45625 0 2.875 0ZM2.875 8.58373C1.29375 8.58373 0 9.87129 0 11.445C0 13.0187 1.29375 14.3062 2.875 14.3062C4.45625 14.3062 5.75 13.0187 5.75 11.445C5.75 9.87129 4.45625 8.58373 2.875 8.58373ZM2.875 17.1675C1.29375 17.1675 0 18.455 0 20.0287C0 21.6024 1.29375 22.89 2.875 22.89C4.45625 22.89 5.75 21.6024 5.75 20.0287C5.75 18.455 4.45625 17.1675 2.875 17.1675ZM20.125 5.72249C21.7062 5.72249 23 4.43493 23 2.86124C23 1.28756 21.7062 0 20.125 0C18.5438 0 17.25 1.28756 17.25 2.86124C17.25 4.43493 18.5438 5.72249 20.125 5.72249ZM11.5 17.1675C9.91875 17.1675 8.625 18.455 8.625 20.0287C8.625 21.6024 9.91875 22.89 11.5 22.89C13.0813 22.89 14.375 21.6024 14.375 20.0287C14.375 18.455 13.0813 17.1675 11.5 17.1675ZM20.125 17.1675C18.5438 17.1675 17.25 18.455 17.25 20.0287C17.25 21.6024 18.5438 22.89 20.125 22.89C21.7062 22.89 23 21.6024 23 20.0287C23 18.455 21.7062 17.1675 20.125 17.1675ZM20.125 8.58373C18.5438 8.58373 17.25 9.87129 17.25 11.445C17.25 13.0187 18.5438 14.3062 20.125 14.3062C21.7062 14.3062 23 13.0187 23 11.445C23 9.87129 21.7062 8.58373 20.125 8.58373ZM11.5 8.58373C9.91875 8.58373 8.625 9.87129 8.625 11.445C8.625 13.0187 9.91875 14.3062 11.5 14.3062C13.0813 14.3062 14.375 13.0187 14.375 11.445C14.375 9.87129 13.0813 8.58373 11.5 8.58373ZM11.5 0C9.91875 0 8.625 1.28756 8.625 2.86124C8.625 4.43493 9.91875 5.72249 11.5 5.72249C13.0813 5.72249 14.375 4.43493 14.375 2.86124C14.375 1.28756 13.0813 0 11.5 0Z" fill="#3A3941"/>
</svg>
