<svg width="21" height="20" viewBox="0 0 21 20" fill="none" xmlns="http://www.w3.org/2000/svg">
<path fill-rule="evenodd" clip-rule="evenodd" d="M10.9912 19.998C8.29488 19.9592 5.7213 18.8645 3.82321 16.949C2.89549 16.0131 2.16395 14.9015 1.67146 13.6792C1.17898 12.4569 0.935472 11.1486 0.955213 9.831C1.01761 7.20067 2.11929 4.70212 4.01921 2.882C5.9429 1.03895 8.50212 0.00695449 11.1662 0H11.3422C13.7872 0.0121352 16.1419 0.924977 17.9562 2.564L15.4112 4.88C14.2732 3.86847 12.8028 3.31105 11.2802 3.314C9.4949 3.30745 7.77655 3.99314 6.48621 5.227C5.85515 5.83009 5.34958 6.55203 4.99862 7.35126C4.64765 8.1505 4.45821 9.01126 4.44121 9.884C4.42708 10.7566 4.58614 11.6233 4.90918 12.434C5.23223 13.2447 5.71284 13.9833 6.32321 14.607C7.57135 15.8819 9.26482 16.6238 11.0482 16.677H11.1912C12.6012 16.749 13.9912 16.323 15.1082 15.477C16.2198 14.6395 16.9912 13.4284 17.2802 12.067L17.3232 11.95H11.1742V8.54H20.8522C20.9275 9.158 20.9609 9.77767 20.9522 10.399C20.8532 16.14 16.9352 19.999 11.2062 19.999L10.9912 19.998Z" fill="black"/>
</svg>
