<svg width="19" height="20" viewBox="0 0 19 20" fill="none" xmlns="http://www.w3.org/2000/svg">
<path d="M8.10013 1.24975C8.24954 0.880497 8.50583 0.564275 8.83614 0.341615C9.16645 0.118954 9.55574 0 9.9541 0C10.3525 0 10.7417 0.118954 11.0721 0.341615C11.4024 0.564275 11.6587 0.880497 11.8081 1.24975C13.2871 1.65594 14.5917 2.5366 15.5214 3.75635C16.4511 4.9761 16.9544 6.46741 16.954 8.00104V12.6975L18.786 15.4453C18.8864 15.5958 18.9441 15.7709 18.9529 15.9517C18.9617 16.1325 18.9212 16.3123 18.8358 16.4719C18.7504 16.6315 18.6233 16.765 18.468 16.858C18.3127 16.951 18.135 17.0001 17.954 17.0001H13.419C13.2986 17.8331 12.8821 18.5949 12.2458 19.1458C11.6094 19.6968 10.7958 20 9.9541 20C9.11236 20 8.29879 19.6968 7.66244 19.1458C7.02609 18.5949 6.60956 17.8331 6.48916 17.0001H1.95423C1.77319 17.0001 1.59554 16.951 1.44023 16.858C1.28492 16.765 1.15778 16.6315 1.07238 16.4719C0.986967 16.3123 0.946496 16.1325 0.955279 15.9517C0.964063 15.7709 1.02177 15.5958 1.12225 15.4453L2.95422 12.6975V8.00104C2.95422 4.77737 5.13418 2.06166 8.10013 1.24975ZM8.54013 17.0001C8.6434 17.2927 8.83491 17.5461 9.08824 17.7253C9.34157 17.9045 9.64427 18.0008 9.9546 18.0008C10.2649 18.0008 10.5676 17.9045 10.821 17.7253C11.0743 17.5461 11.2658 17.2927 11.3691 17.0001H8.54013ZM9.9541 3.00156C8.62804 3.00156 7.35629 3.52829 6.41863 4.46587C5.48096 5.40346 4.95418 6.67509 4.95418 8.00104V13.0005C4.95423 13.198 4.89577 13.3911 4.78619 13.5555L3.8232 15.0003H16.084L15.121 13.5555C15.0118 13.391 14.9537 13.1979 14.954 13.0005V8.00104C14.954 6.67509 14.4272 5.40346 13.4896 4.46587C12.5519 3.52829 11.2802 3.00156 9.9541 3.00156Z" fill="black"/>
</svg>
