<svg width="10" height="10" viewBox="0 0 10 10" fill="none" xmlns="http://www.w3.org/2000/svg">
<mask id="path-1-inside-1_1_15" fill="white">
<path d="M10 5.83333H6V9.83333H4.66667V5.83333H0.666672V4.5H4.66667V0.5H6V4.5H10V5.83333Z"/>
</mask>
<path d="M10 5.83333H6V9.83333H4.66667V5.83333H0.666672V4.5H4.66667V0.5H6V4.5H10V5.83333Z" fill="#84B4E4"/>
<path d="M10 5.83333V8.83333H13V5.83333H10ZM6 5.83333V2.83333H3V5.83333H6ZM6 9.83333V12.8333H9V9.83333H6ZM4.66667 9.83333H1.66667V12.8333H4.66667V9.83333ZM4.66667 5.83333H7.66667V2.83333H4.66667V5.83333ZM0.666672 5.83333H-2.33333V8.83333H0.666672V5.83333ZM0.666672 4.5V1.5H-2.33333V4.5H0.666672ZM4.66667 4.5V7.5H7.66667V4.5H4.66667ZM4.66667 0.5V-2.5H1.66667V0.5H4.66667ZM6 0.5H9V-2.5H6V0.5ZM6 4.5H3V7.5H6V4.5ZM10 4.5H13V1.5H10V4.5ZM10 5.83333V2.83333H6V5.83333V8.83333H10V5.83333ZM6 5.83333H3V9.83333H6H9V5.83333H6ZM6 9.83333V6.83333H4.66667V9.83333V12.8333H6V9.83333ZM4.66667 9.83333H7.66667V5.83333H4.66667H1.66667V9.83333H4.66667ZM4.66667 5.83333V2.83333H0.666672V5.83333V8.83333H4.66667V5.83333ZM0.666672 5.83333H3.66667V4.5H0.666672H-2.33333V5.83333H0.666672ZM0.666672 4.5V7.5H4.66667V4.5V1.5H0.666672V4.5ZM4.66667 4.5H7.66667V0.5H4.66667H1.66667V4.5H4.66667ZM4.66667 0.5V3.5H6V0.5V-2.5H4.66667V0.5ZM6 0.5H3V4.5H6H9V0.5H6ZM6 4.5V7.5H10V4.5V1.5H6V4.5ZM10 4.5H7V5.83333H10H13V4.5H10Z" fill="#84B4E4" mask="url(#path-1-inside-1_1_15)"/>
</svg>
