<svg width="21" height="21" viewBox="0 0 21 21" fill="none" xmlns="http://www.w3.org/2000/svg">
<path d="M4.66399 9.49839C6.2692 12.6531 8.85538 15.2281 12.0101 16.8445L14.4625 14.3921C14.7635 14.0911 15.2093 13.9908 15.5995 14.1245C16.848 14.537 18.1968 14.7599 19.5791 14.7599C20.1922 14.7599 20.6938 15.2616 20.6938 15.8747V19.7651C20.6938 20.3782 20.1922 20.8798 19.5791 20.8798C9.11177 20.8798 0.628662 12.3967 0.628662 1.92937C0.628662 1.31627 1.13029 0.814636 1.74339 0.814636H5.64495C6.25806 0.814636 6.75968 1.31627 6.75968 1.92937C6.75968 3.32278 6.98263 4.66046 7.39508 5.90896C7.5177 6.29911 7.42852 6.73386 7.1164 7.04598L4.66399 9.49839Z" fill="black"/>
</svg>
