<svg width="18" height="8" viewBox="0 0 18 8" fill="none" xmlns="http://www.w3.org/2000/svg">
<path d="M13.875 0C11.595 0 9.75 1.78909 9.75 4C9.75 4.96727 10.1025 5.85455 10.695 6.54545H7.305C7.8975 5.85455 8.25 4.96727 8.25 4C8.25 1.78909 6.405 0 4.125 0C1.845 0 0 1.78909 0 4C0 6.21091 1.845 8 4.125 8H13.875C16.155 8 18 6.21091 18 4C18 1.78909 16.155 0 13.875 0ZM4.125 6.54545C2.6775 6.54545 1.5 5.40364 1.5 4C1.5 2.59636 2.6775 1.45455 4.125 1.45455C5.5725 1.45455 6.75 2.59636 6.75 4C6.75 5.40364 5.5725 6.54545 4.125 6.54545ZM13.875 6.54545C12.4275 6.54545 11.25 5.40364 11.25 4C11.25 2.59636 12.4275 1.45455 13.875 1.45455C15.3225 1.45455 16.5 2.59636 16.5 4C16.5 5.40364 15.3225 6.54545 13.875 6.54545Z" fill="white"/>
</svg>
