<svg width="18" height="16" viewBox="0 0 18 16" fill="none" xmlns="http://www.w3.org/2000/svg">
<path d="M3.0791 16C2.49473 16 1.99464 15.8043 1.57885 15.413C1.16306 15.0216 0.954812 14.5506 0.954103 14C0.953395 13.4493 1.16164 12.9786 1.57885 12.588C1.99606 12.1973 2.49614 12.0013 3.0791 12C3.66206 11.9986 4.1625 12.1946 4.58041 12.588C4.99833 12.9813 5.20622 13.452 5.2041 14C5.20197 14.548 4.99408 15.019 4.58041 15.413C4.16675 15.807 3.66631 16.0026 3.0791 16ZM9.45409 16C8.86972 16 8.36964 15.8043 7.95385 15.413C7.53805 15.0216 7.3298 14.5506 7.3291 14C7.32839 13.4493 7.53664 12.9786 7.95385 12.588C8.37105 12.1973 8.87114 12.0013 9.45409 12C10.0371 11.9986 10.5375 12.1946 10.9554 12.588C11.3733 12.9813 11.5812 13.452 11.5791 14C11.577 14.548 11.3691 15.019 10.9554 15.413C10.5417 15.807 10.0413 16.0026 9.45409 16ZM15.8291 16C15.2447 16 14.7446 15.8043 14.3288 15.413C13.913 15.0216 13.7048 14.5506 13.7041 14C13.7034 13.4493 13.9116 12.9786 14.3288 12.588C14.746 12.1973 15.2461 12.0013 15.8291 12C16.412 11.9986 16.9125 12.1946 17.3304 12.588C17.7483 12.9813 17.9562 13.452 17.9541 14C17.952 14.548 17.7441 15.019 17.3304 15.413C16.9167 15.807 16.4163 16.0026 15.8291 16ZM3.0791 9.99998C2.49473 9.99998 1.99464 9.80432 1.57885 9.41299C1.16306 9.02165 0.954812 8.55066 0.954103 7.99999C0.953395 7.44932 1.16164 6.97866 1.57885 6.58799C1.99606 6.19733 2.49614 6.00133 3.0791 5.99999C3.66206 5.99866 4.1625 6.19466 4.58041 6.58799C4.99833 6.98133 5.20622 7.45199 5.2041 7.99999C5.20197 8.54799 4.99408 9.01899 4.58041 9.41299C4.16675 9.80699 3.66631 10.0027 3.0791 9.99998ZM9.45409 9.99998C8.86972 9.99998 8.36964 9.80432 7.95385 9.41299C7.53805 9.02165 7.3298 8.55066 7.3291 7.99999C7.32839 7.44932 7.53664 6.97866 7.95385 6.58799C8.37105 6.19733 8.87114 6.00133 9.45409 5.99999C10.0371 5.99866 10.5375 6.19466 10.9554 6.58799C11.3733 6.98133 11.5812 7.45199 11.5791 7.99999C11.577 8.54799 11.3691 9.01899 10.9554 9.41299C10.5417 9.80699 10.0413 10.0027 9.45409 9.99998ZM15.8291 9.99998C15.2447 9.99998 14.7446 9.80432 14.3288 9.41299C13.913 9.02165 13.7048 8.55066 13.7041 7.99999C13.7034 7.44932 13.9116 6.97866 14.3288 6.58799C14.746 6.19733 15.2461 6.00133 15.8291 5.99999C16.412 5.99866 16.9125 6.19466 17.3304 6.58799C17.7483 6.98133 17.9562 7.45199 17.9541 7.99999C17.952 8.54799 17.7441 9.01899 17.3304 9.41299C16.9167 9.80699 16.4163 10.0027 15.8291 9.99998ZM3.0791 4C2.49473 4 1.99464 3.80433 1.57885 3.413C1.16306 3.02167 0.954812 2.55067 0.954103 2C0.953395 1.44934 1.16164 0.978671 1.57885 0.588005C1.99606 0.197339 2.49614 0.00134009 3.0791 6.75675e-06C3.66206 -0.00132657 4.1625 0.194673 4.58041 0.588005C4.99833 0.981338 5.20622 1.452 5.2041 2C5.20197 2.548 4.99408 3.019 4.58041 3.413C4.16675 3.807 3.66631 4.00266 3.0791 4ZM9.45409 4C8.86972 4 8.36964 3.80433 7.95385 3.413C7.53805 3.02167 7.3298 2.55067 7.3291 2C7.32839 1.44934 7.53664 0.978671 7.95385 0.588005C8.37105 0.197339 8.87114 0.00134009 9.45409 6.75675e-06C10.0371 -0.00132657 10.5375 0.194673 10.9554 0.588005C11.3733 0.981338 11.5812 1.452 11.5791 2C11.577 2.548 11.3691 3.019 10.9554 3.413C10.5417 3.807 10.0413 4.00266 9.45409 4ZM15.8291 4C15.2447 4 14.7446 3.80433 14.3288 3.413C13.913 3.02167 13.7048 2.55067 13.7041 2C13.7034 1.44934 13.9116 0.978671 14.3288 0.588005C14.746 0.197339 15.2461 0.00134009 15.8291 6.75675e-06C16.412 -0.00132657 16.9125 0.194673 17.3304 0.588005C17.7483 0.981338 17.9562 1.452 17.9541 2C17.952 2.548 17.7441 3.019 17.3304 3.413C16.9167 3.807 16.4163 4.00266 15.8291 4Z" fill="black"/>
</svg>
