<svg width="21" height="14" viewBox="0 0 21 14" fill="none" xmlns="http://www.w3.org/2000/svg">
<path d="M10.9541 14C10.3708 14 9.87771 13.801 9.47493 13.4029C9.07216 13.0049 8.87077 12.5176 8.87077 11.9412C8.87077 11.3647 9.07216 10.8775 9.47493 10.4794C9.87771 10.0814 10.3708 9.88235 10.9541 9.88235C11.5374 9.88235 12.0305 10.0814 12.4333 10.4794C12.836 10.8775 13.0374 11.3647 13.0374 11.9412C13.0374 12.5176 12.836 13.0049 12.4333 13.4029C12.0305 13.801 11.5374 14 10.9541 14ZM6.24577 9.34706L4.49577 7.57647C5.31521 6.76667 6.27716 6.12514 7.3816 5.65188C8.48605 5.17863 9.67688 4.94173 10.9541 4.94118C12.2313 4.94063 13.4224 5.18082 14.5274 5.66176C15.6324 6.14271 16.5941 6.79467 17.4124 7.61765L15.6624 9.34706C15.0513 8.74314 14.343 8.26961 13.5374 7.92647C12.7319 7.58333 11.8708 7.41176 10.9541 7.41176C10.0374 7.41176 9.17632 7.58333 8.37077 7.92647C7.56521 8.26961 6.85688 8.74314 6.24577 9.34706ZM2.7041 5.84706L0.954102 4.11765C2.23188 2.82745 3.72493 1.81863 5.43327 1.09118C7.1416 0.363725 8.98188 0 10.9541 0C12.9263 0 14.7666 0.363725 16.4749 1.09118C18.1833 1.81863 19.6763 2.82745 20.9541 4.11765L19.2041 5.84706C18.1347 4.7902 16.8952 3.96337 15.4858 3.36659C14.0763 2.7698 12.5658 2.47114 10.9541 2.47059C9.34243 2.47004 7.83216 2.76871 6.42327 3.36659C5.01438 3.96447 3.77466 4.79129 2.7041 5.84706Z" fill="black"/>
</svg>
