<svg width="24" height="24" viewBox="0 0 24 24" fill="none" xmlns="http://www.w3.org/2000/svg">
<path d="M12.2307 0.172625C10.6719 0.150575 9.12434 0.438546 7.67784 1.0198C6.23135 1.60106 4.9148 2.46401 3.80472 3.5585C2.69463 4.653 1.81315 5.9572 1.21149 7.39533C0.609832 8.83346 0.299999 10.3768 0.299999 11.9357C0.299999 13.4946 0.609832 15.038 1.21149 16.4761C1.81315 17.9143 2.69463 19.2185 3.80472 20.313C4.9148 21.4075 6.23135 22.2704 7.67784 22.8517C9.12434 23.4329 10.6719 23.7209 12.2307 23.6988C15.3216 23.6551 18.2712 22.3966 20.4415 20.1953C22.6119 17.994 23.8286 15.027 23.8286 11.9357C23.8286 8.84447 22.6119 5.87742 20.4415 3.67617C18.2712 1.47491 15.3216 0.216349 12.2307 0.172625ZM2.8202 11.9369C2.80046 10.6887 3.02925 9.44911 3.49325 8.29023C3.95725 7.13134 4.64719 6.07635 5.52288 5.18669C6.39857 4.29704 7.44252 3.59051 8.59392 3.10824C9.74533 2.62597 10.9812 2.3776 12.2295 2.3776C13.4778 2.3776 14.7137 2.62597 15.8651 3.10824C17.0165 3.59051 18.0604 4.29704 18.9361 5.18669C19.8118 6.07635 20.5018 7.13134 20.9658 8.29023C21.4298 9.44911 21.6586 10.6887 21.6388 11.9369C21.5998 14.4066 20.5912 16.762 18.8309 18.4947C17.0706 20.2274 14.6995 21.1986 12.2295 21.1986C9.75947 21.1986 7.38846 20.2274 5.62812 18.4947C3.86778 16.762 2.85926 14.4066 2.8202 11.9369ZM7.5278 11.9416C7.5278 11.6295 7.65179 11.3301 7.8725 11.1094C8.09321 10.8887 8.39256 10.7647 8.7047 10.7647H15.7661C16.0782 10.7647 16.3776 10.8887 16.5983 11.1094C16.819 11.3301 16.943 11.6295 16.943 11.9416C16.943 12.2538 16.819 12.5531 16.5983 12.7738C16.3776 12.9945 16.0782 13.1185 15.7661 13.1185H8.7047C8.39256 13.1185 8.09321 12.9945 7.8725 12.7738C7.65179 12.5531 7.5278 12.2538 7.5278 11.9416Z" fill="black"/>
</svg>
