<svg width="28" height="40" viewBox="0 0 28 40" fill="none" xmlns="http://www.w3.org/2000/svg">
<path d="M0.413159 40C4.03622 40.0006 7.62391 39.3363 10.9713 38.045C14.3187 36.7538 17.3601 34.861 19.922 32.4746C22.4838 30.0882 24.5158 27.2551 25.9018 24.1371C27.2879 21.0191 28.0009 17.6773 28 14.3026C27.999 9.79168 26.7232 5.36049 24.3008 1.45441C19.0745 0.974591 15.2174 0.73468 12.7295 0.73468C9.9086 0.73468 5.80249 0.974591 0.411221 1.45441L0.408203 1.45642C2.83005 1.45531 5.20951 2.04821 7.30728 3.17551C9.40505 4.30281 11.1472 5.92475 12.3584 7.87821C13.5697 9.83166 14.2074 12.0478 14.2073 14.3036C14.2073 16.5595 13.5695 18.7756 12.3582 20.729L0.413159 40Z" fill="#FBC116"/>
</svg>
