<svg width="17" height="20" viewBox="0 0 17 20" fill="none" xmlns="http://www.w3.org/2000/svg">
<path d="M8.9541 0C4.5541 0 0.954102 3.6 0.954102 8C0.954102 13.4 7.9541 19.5 8.2541 19.8C8.4541 19.9 8.7541 20 8.9541 20C9.1541 20 9.4541 19.9 9.6541 19.8C9.9541 19.5 16.9541 13.4 16.9541 8C16.9541 3.6 13.3541 0 8.9541 0ZM8.9541 17.7C6.8541 15.7 2.9541 11.4 2.9541 8C2.9541 4.7 5.6541 2 8.9541 2C12.2541 2 14.9541 4.7 14.9541 8C14.9541 11.3 11.0541 15.7 8.9541 17.7ZM8.9541 4C6.7541 4 4.9541 5.8 4.9541 8C4.9541 10.2 6.7541 12 8.9541 12C11.1541 12 12.9541 10.2 12.9541 8C12.9541 5.8 11.1541 4 8.9541 4ZM8.9541 10C7.8541 10 6.9541 9.1 6.9541 8C6.9541 6.9 7.8541 6 8.9541 6C10.0541 6 10.9541 6.9 10.9541 8C10.9541 9.1 10.0541 10 8.9541 10Z" fill="black"/>
</svg>
