<svg width="26" height="24" viewBox="0 0 26 24" fill="none" xmlns="http://www.w3.org/2000/svg">
<path fill-rule="evenodd" clip-rule="evenodd" d="M5.08503 0.628113C3.85617 0.628113 2.67764 1.07276 1.8087 1.86423C0.939763 2.6557 0.451599 3.72916 0.451599 4.84847V19.6197C0.451599 20.739 0.939763 21.8125 1.8087 22.604C2.67764 23.3954 3.85617 23.8401 5.08503 23.8401H21.302C22.5309 23.8401 23.7094 23.3954 24.5784 22.604C25.4473 21.8125 25.9355 20.739 25.9355 19.6197V4.84847C25.9355 3.72916 25.4473 2.6557 24.5784 1.86423C23.7094 1.07276 22.5309 0.628113 21.302 0.628113H5.08503ZM4.34831 6.09559C4.27393 6.09575 4.20092 6.11384 4.13669 6.14801C4.07246 6.18218 4.0193 6.23121 3.9826 6.29014C3.9459 6.34907 3.92697 6.4158 3.92772 6.48354C3.92848 6.55129 3.9489 6.61765 3.98691 6.67589L6.45421 10.4215V15.6864C6.45406 16.0391 6.5302 16.3884 6.67828 16.7143C6.82636 17.0402 7.04349 17.3363 7.31725 17.5858C7.59102 17.8352 7.91606 18.0331 8.2738 18.1681C8.63155 18.3031 9.01499 18.3726 9.40223 18.3726H19.5112C19.8985 18.3728 20.2819 18.3034 20.6397 18.1685C20.9975 18.0336 21.3227 17.8359 21.5965 17.5865C21.8704 17.3372 22.0877 17.0411 22.2359 16.7152C22.3841 16.3894 22.4604 16.0401 22.4604 15.6874V8.78079C22.4604 8.42808 22.3841 8.07882 22.2359 7.75296C22.0877 7.42711 21.8704 7.13105 21.5965 6.88169C21.3227 6.63234 20.9975 6.43457 20.6397 6.29968C20.2819 6.1648 19.8985 6.09545 19.5112 6.09559H4.34831ZM8.67826 9.16379C8.67826 8.79978 9.0026 8.50436 9.40223 8.50436H19.5112C19.7032 8.50436 19.8874 8.57383 20.0231 8.6975C20.1589 8.82117 20.2352 8.9889 20.2352 9.16379C20.2352 9.33868 20.1589 9.50641 20.0231 9.63008C19.8874 9.75375 19.7032 9.82322 19.5112 9.82322H9.40223C9.21022 9.82322 9.02607 9.75375 8.8903 9.63008C8.75453 9.50641 8.67826 9.33868 8.67826 9.16379ZM9.40223 11.1896C9.21022 11.1896 9.02607 11.259 8.8903 11.3827C8.75453 11.5064 8.67826 11.6741 8.67826 11.849C8.67826 12.0239 8.75453 12.1916 8.8903 12.3153C9.02607 12.4389 9.21022 12.5084 9.40223 12.5084H19.5112C19.7032 12.5084 19.8874 12.4389 20.0231 12.3153C20.1589 12.1916 20.2352 12.0239 20.2352 11.849C20.2352 11.6741 20.1589 11.5064 20.0231 11.3827C19.8874 11.259 19.7032 11.1896 19.5112 11.1896H9.40223ZM8.67826 14.5342C8.67826 14.1712 9.0026 13.8758 9.40223 13.8758H16.5632C16.7552 13.8758 16.9394 13.9453 17.0751 14.069C17.2109 14.1926 17.2872 14.3604 17.2872 14.5353C17.2872 14.7101 17.2109 14.8779 17.0751 15.0015C16.9394 15.1252 16.7552 15.1947 16.5632 15.1947H9.40223C9.21022 15.1947 9.02607 15.1252 8.8903 15.0015C8.75453 14.8779 8.67826 14.7091 8.67826 14.5342Z" fill="black"/>
</svg>
