<svg width="44" height="34" viewBox="0 0 44 34" fill="none" xmlns="http://www.w3.org/2000/svg">
<path d="M22.0011 13.5831H43.7551C41.5507 9.45319 38.3796 6.0236 34.5605 3.63921C30.7414 1.25482 26.4091 -0.000322584 21.9991 6.21891e-08C17.5891 0.000322709 13.257 1.25609 9.43821 3.64104C5.61945 6.02599 2.44873 9.45605 0.244873 13.5863L11.122 33.9575L11.1249 33.9592C10.0214 31.8946 9.44009 29.5522 9.43944 27.1676C9.43879 24.783 10.0188 22.4403 11.1212 20.375C12.2236 18.3097 13.8095 16.5947 15.7194 15.4024C17.6293 14.2101 19.7959 13.5826 22.0013 13.5829L22.0011 13.5831Z" fill="#E33B2E"/>
</svg>
