<svg width="17" height="17" viewBox="0 0 17 17" fill="none" xmlns="http://www.w3.org/2000/svg">
<path d="M15.4929 0.868447C15.2442 0.767976 14.9705 0.741582 14.7064 0.792605C14.4424 0.843627 14.1997 0.969773 14.0093 1.15509L0.398341 14.4101C0.208064 14.5956 0.0785166 14.8318 0.0260778 15.0889C-0.0263611 15.346 0.000663674 15.6125 0.103735 15.8547C0.206807 16.0968 0.381296 16.3038 0.605142 16.4494C0.828987 16.595 1.09214 16.6727 1.36132 16.6726H14.9723C15.3333 16.6726 15.6794 16.533 15.9347 16.2844C16.19 16.0358 16.3334 15.6987 16.3334 15.3471V2.09205C16.3338 1.82989 16.2541 1.57352 16.1044 1.35561C15.9548 1.13771 15.7419 0.968116 15.4929 0.868447ZM14.9723 15.3471H6.12515V10.7078L14.9723 2.09205V15.3471Z" fill="#5B5C58"/>
</svg>
