<svg width="19" height="18" viewBox="0 0 19 18" fill="none" xmlns="http://www.w3.org/2000/svg">
<path d="M2.9541 14.85C3.8541 13.9667 4.9001 13.271 6.0921 12.763C7.2841 12.255 8.57143 12.0007 9.9541 12C11.3368 11.9993 12.6244 12.2537 13.8171 12.763C15.0098 13.2723 16.0554 13.968 16.9541 14.85V2H2.9541V14.85ZM9.9541 10C10.9208 10 11.7458 9.65833 12.4291 8.975C13.1124 8.29167 13.4541 7.46667 13.4541 6.5C13.4541 5.53333 13.1124 4.70833 12.4291 4.025C11.7458 3.34167 10.9208 3 9.9541 3C8.98744 3 8.16243 3.34167 7.4791 4.025C6.79577 4.70833 6.4541 5.53333 6.4541 6.5C6.4541 7.46667 6.79577 8.29167 7.4791 8.975C8.16243 9.65833 8.98744 10 9.9541 10ZM2.9541 18C2.4041 18 1.93343 17.8043 1.5421 17.413C1.15077 17.0217 0.954768 16.5507 0.954102 16V2C0.954102 1.45 1.1501 0.979333 1.5421 0.588C1.9341 0.196667 2.40477 0.000666667 2.9541 0H16.9541C17.5041 0 17.9751 0.196 18.3671 0.588C18.7591 0.98 18.9548 1.45067 18.9541 2V16C18.9541 16.55 18.7584 17.021 18.3671 17.413C17.9758 17.805 17.5048 18.0007 16.9541 18H2.9541ZM4.6791 16H15.2291C14.4958 15.35 13.6664 14.8543 12.7411 14.513C11.8158 14.1717 10.8868 14.0007 9.9541 14C9.02143 13.9993 8.0841 14.1703 7.1421 14.513C6.2001 14.8557 5.3791 15.3513 4.6791 16ZM9.9541 8C9.53743 8 9.18343 7.85433 8.8921 7.563C8.60077 7.27167 8.45477 6.91733 8.4541 6.5C8.45343 6.08267 8.59943 5.72867 8.8921 5.438C9.18477 5.14733 9.53877 5.00133 9.9541 5C10.3694 4.99867 10.7238 5.14467 11.0171 5.438C11.3104 5.73133 11.4561 6.08533 11.4541 6.5C11.4521 6.91467 11.3064 7.269 11.0171 7.563C10.7278 7.857 10.3734 8.00267 9.9541 8Z" fill="black"/>
</svg>
