<svg width="23" height="23" viewBox="0 0 23 23" fill="none" xmlns="http://www.w3.org/2000/svg">
<path d="M22.4546 9.2242H21.5547V9.17783H11.5V13.6466H17.8138C16.8927 16.248 14.4175 18.1154 11.5 18.1154C7.79817 18.1154 4.79683 15.114 4.79683 11.4122C4.79683 7.7104 7.79817 4.70906 11.5 4.70906C13.2087 4.70906 14.7633 5.35368 15.947 6.40664L19.1069 3.24666C17.1116 1.38709 14.4427 0.240295 11.5 0.240295C5.33029 0.240295 0.328064 5.24252 0.328064 11.4122C0.328064 17.5819 5.33029 22.5841 11.5 22.5841C17.6697 22.5841 22.6719 17.5819 22.6719 11.4122C22.6719 10.6631 22.5948 9.93194 22.4546 9.2242Z" fill="#FFC107"/>
</svg>
