<svg width="26" height="13" viewBox="0 0 26 13" fill="none" xmlns="http://www.w3.org/2000/svg">
<path d="M12.957 6.46036C12.957 9.45098 15.641 11.8762 18.9529 11.8762C20.128 11.8791 21.2781 11.5673 22.2602 10.9795C23.2424 10.3917 24.0131 9.55396 24.4766 8.57037C24.8334 7.80998 25.0118 7.42979 24.655 6.94562C24.2982 6.46144 23.7155 6.46036 22.5501 6.46036H12.957ZM12.957 6.46036C12.957 3.46973 10.273 1.04451 6.96112 1.04451C5.78585 1.04171 4.63561 1.35369 3.65349 1.94166C2.67136 2.52963 1.9007 3.36764 1.43735 4.35143C1.0806 5.11073 0.902221 5.49092 1.25898 5.97618C1.61573 6.46144 2.19843 6.46036 3.36383 6.46036H12.957Z" stroke="black" stroke-width="1.5" stroke-linecap="round" stroke-linejoin="round"/>
</svg>
