<svg width="18" height="18" viewBox="0 0 18 18" fill="none" xmlns="http://www.w3.org/2000/svg">
<path d="M1 0.5H4.5C4.77386 0.5 5 0.726142 5 1L5.00879 1.47363C5.0457 2.42106 5.19614 3.36063 5.45605 4.27246L5.59473 4.72656C5.64831 4.90479 5.6074 5.09556 5.4668 5.23633L3.2666 7.43652L3.00879 7.69336L3.1748 8.01758C4.67231 10.9457 7.05434 13.3277 9.98242 14.8252L10.3066 14.9912L10.5635 14.7334L12.7539 12.543C12.8641 12.4383 12.9926 12.3896 13.1201 12.3896H13.1387C13.1782 12.3882 13.2178 12.3944 13.2549 12.4082L13.2637 12.4121L13.2734 12.415C14.4438 12.8016 15.7067 13.0098 17 13.0098C17.2738 13.0098 17.4999 13.236 17.5 13.5098V17C17.5 17.2739 17.2739 17.5 17 17.5C7.88614 17.5 0.5 10.1139 0.5 1C0.5 0.726142 0.726142 0.5 1 0.5ZM1.53125 2.03418C1.62422 3.39757 1.8925 4.71031 2.31641 5.95117L2.57617 6.71094L4.55273 4.73438L4.4707 4.45117C4.24116 3.65734 4.0968 2.82282 4.03906 1.9668L4.00781 1.5H1.49512L1.53125 2.03418ZM16.5 14.0029L16.0342 13.9707C15.1885 13.913 14.3525 13.7695 13.5361 13.5391L13.2549 13.46L13.0479 13.665L11.8477 14.8545L11.2695 15.4287L12.043 15.6846C13.2908 16.0971 14.6021 16.366 15.9658 16.459L16.5 16.4951V14.0029Z" fill="black" stroke="black"/>
</svg>
