<svg width="9" height="9" viewBox="0 0 9 9" fill="none" xmlns="http://www.w3.org/2000/svg">
<mask id="path-1-inside-1_1_357" fill="white">
<path d="M0.711639 0.78269L0.707232 1.20205L0.77278 6.26736L1.6309 6.25626L1.57711 2.21445L7.63274 8.11536L8.22095 7.51173L2.16562 1.61112L6.20656 1.55942L6.19545 0.701296L1.13014 0.766844L0.711639 0.78269Z"/>
</mask>
<path d="M0.711639 0.78269L0.707232 1.20205L0.77278 6.26736L1.6309 6.25626L1.57711 2.21445L7.63274 8.11536L8.22095 7.51173L2.16562 1.61112L6.20656 1.55942L6.19545 0.701296L1.13014 0.766844L0.711639 0.78269Z" fill="#D94E4E"/>
<path d="M0.711639 0.78269L0.635967 -1.21588L-1.26822 -1.14378L-1.28825 0.761672L0.711639 0.78269ZM0.707232 1.20205L-1.29266 1.18103L-1.2929 1.20448L-1.2926 1.22793L0.707232 1.20205ZM0.77278 6.26736L-1.22705 6.29324L-1.20117 8.29308L0.798659 8.2672L0.77278 6.26736ZM1.6309 6.25626L1.65678 8.25609L3.65735 8.2302L3.63073 6.22964L1.6309 6.25626ZM1.57711 2.21445L2.97291 0.782059L-0.487002 -2.58945L-0.422712 2.24107L1.57711 2.21445ZM7.63274 8.11536L6.23694 9.54775L7.66934 10.9435L9.06513 9.51115L7.63274 8.11536ZM8.22095 7.51173L9.65334 8.90752L11.0491 7.47513L9.61674 6.07933L8.22095 7.51173ZM2.16562 1.61112L2.14004 -0.38872L-2.689 -0.326941L0.769825 3.04351L2.16562 1.61112ZM6.20656 1.55942L6.23214 3.55926L8.23228 3.53367L8.20639 1.53354L6.20656 1.55942ZM6.19545 0.701296L8.19529 0.675417L8.16941 -1.32442L6.16958 -1.29854L6.19545 0.701296ZM1.13014 0.766844L1.10426 -1.23299L1.07935 -1.23267L1.05447 -1.23172L1.13014 0.766844ZM0.711639 0.78269L-1.28825 0.761672L-1.29266 1.18103L0.707232 1.20205L2.70712 1.22307L2.71153 0.803708L0.711639 0.78269ZM0.707232 1.20205L-1.2926 1.22793L-1.22705 6.29324L0.77278 6.26736L2.77261 6.24148L2.70706 1.17617L0.707232 1.20205ZM0.77278 6.26736L0.798659 8.2672L1.65678 8.25609L1.6309 6.25626L1.60502 4.25643L0.7469 4.26753L0.77278 6.26736ZM1.6309 6.25626L3.63073 6.22964L3.57693 2.18784L1.57711 2.21445L-0.422712 2.24107L-0.368919 6.28288L1.6309 6.25626ZM1.57711 2.21445L0.181315 3.64685L6.23694 9.54775L7.63274 8.11536L9.02853 6.68296L2.97291 0.782059L1.57711 2.21445ZM7.63274 8.11536L9.06513 9.51115L9.65334 8.90752L8.22095 7.51173L6.78855 6.11593L6.20034 6.71956L7.63274 8.11536ZM8.22095 7.51173L9.61674 6.07933L3.56142 0.178722L2.16562 1.61112L0.769825 3.04351L6.82515 8.94412L8.22095 7.51173ZM2.16562 1.61112L2.1912 3.61095L6.23214 3.55926L6.20656 1.55942L6.18098 -0.440416L2.14004 -0.38872L2.16562 1.61112ZM6.20656 1.55942L8.20639 1.53354L8.19529 0.675417L6.19545 0.701296L4.19562 0.727176L4.20673 1.5853L6.20656 1.55942ZM6.19545 0.701296L6.16958 -1.29854L1.10426 -1.23299L1.13014 0.766844L1.15602 2.76668L6.22133 2.70113L6.19545 0.701296ZM1.13014 0.766844L1.05447 -1.23172L0.635967 -1.21588L0.711639 0.78269L0.787312 2.78126L1.20581 2.76541L1.13014 0.766844Z" fill="#FA6666" fill-opacity="0.76" mask="url(#path-1-inside-1_1_357)"/>
</svg>
