<svg width="26" height="20" viewBox="0 0 26 20" fill="none" xmlns="http://www.w3.org/2000/svg">
<path d="M10.4 0H15.6C18.3583 0 21.0035 0.864467 22.9539 2.40323C24.9043 3.94199 26 6.02899 26 8.20513C26 10.3813 24.9043 12.4683 22.9539 14.007C21.0035 15.5458 18.3583 16.4103 15.6 16.4103V20C9.1 17.9487 0 14.8718 0 8.20513C0 6.02899 1.09571 3.94199 3.04609 2.40323C4.99647 0.864467 7.64175 0 10.4 0ZM13 14.359H15.6C17.6687 14.359 19.6526 13.7106 21.1154 12.5566C22.5782 11.4025 23.4 9.83723 23.4 8.20513C23.4 6.57303 22.5782 5.00777 21.1154 3.8537C19.6526 2.69963 17.6687 2.05128 15.6 2.05128H10.4C8.33131 2.05128 6.34735 2.69963 4.88457 3.8537C3.42178 5.00777 2.6 6.57303 2.6 8.20513C2.6 11.9077 5.8006 14.3241 13 16.9026V14.359Z" fill="white"/>
</svg>
