<svg width="6" height="21" viewBox="0 0 6 21" fill="none" xmlns="http://www.w3.org/2000/svg">
<path d="M3 16.6543C3.69351 16.6543 4.34301 16.8777 4.80762 17.2529C5.26905 17.6258 5.5 18.1059 5.5 18.5771C5.49993 19.0484 5.26912 19.5285 4.80762 19.9014C4.34301 20.2766 3.69351 20.5 3 20.5C2.30649 20.5 1.65699 20.2766 1.19238 19.9014C0.730879 19.5285 0.500074 19.0484 0.5 18.5771C0.5 18.1059 0.730953 17.6258 1.19238 17.2529C1.65699 16.8777 2.30649 16.6543 3 16.6543ZM3 8.57715C3.69351 8.57715 4.34301 8.80052 4.80762 9.17578C5.26912 9.54869 5.5 10.0288 5.5 10.5C5.5 10.9712 5.26912 11.4513 4.80762 11.8242C4.34301 12.1995 3.69351 12.4229 3 12.4229C2.30649 12.4229 1.65699 12.1995 1.19238 11.8242C0.730879 11.4513 0.5 10.9712 0.5 10.5C0.5 10.0288 0.73088 9.54869 1.19238 9.17578C1.65699 8.80052 2.30649 8.57715 3 8.57715ZM3 0.5C3.69351 0.5 4.34301 0.72337 4.80762 1.09863C5.26912 1.4715 5.49993 1.95164 5.5 2.42285C5.5 2.89406 5.26905 3.37417 4.80762 3.74707C4.34301 4.12233 3.69351 4.3457 3 4.3457C2.30649 4.3457 1.65699 4.12233 1.19238 3.74707C0.730953 3.37417 0.5 2.89406 0.5 2.42285C0.500074 1.95164 0.730879 1.4715 1.19238 1.09863C1.59889 0.770303 2.14706 0.558656 2.74219 0.510742L3 0.5Z" fill="white" stroke="white"/>
</svg>
