<svg width="10" height="11" viewBox="0 0 10 11" fill="none" xmlns="http://www.w3.org/2000/svg">
<mask id="path-1-inside-1_1_350" fill="white">
<path d="M1.61397 10.2324L2.10945 10.1866L8.07976 9.49348L7.96233 8.48204L3.19858 9.03687L9.4269 1.17245L8.64296 0.551609L2.41496 8.41564L1.86271 3.65265L0.851269 3.77008L1.5444 9.74039L1.61397 10.2324Z"/>
</mask>
<path d="M1.61397 10.2324L2.10945 10.1866L8.07976 9.49348L7.96233 8.48204L3.19858 9.03687L9.4269 1.17245L8.64296 0.551609L2.41496 8.41564L1.86271 3.65265L0.851269 3.77008L1.5444 9.74039L1.61397 10.2324Z" fill="white"/>
<path d="M1.61397 10.2324L-0.366325 10.5124L-0.0995048 12.3992L1.79797 12.2239L1.61397 10.2324ZM2.10945 10.1866L2.29345 12.1781L2.3168 12.176L2.34009 12.1733L2.10945 10.1866ZM8.07976 9.49348L8.3104 11.4801L10.2971 11.2495L10.0664 9.26284L8.07976 9.49348ZM7.96233 8.48204L9.94899 8.2514L9.71826 6.26401L7.73096 6.49547L7.96233 8.48204ZM3.19858 9.03687L1.63072 7.79518L-1.36855 11.5823L3.42996 11.0234L3.19858 9.03687ZM9.4269 1.17245L10.9948 2.41414L12.2365 0.846276L10.6686 -0.395413L9.4269 1.17245ZM8.64296 0.551609L9.88465 -1.01626L8.31679 -2.25795L7.0751 -0.690081L8.64296 0.551609ZM2.41496 8.41564L0.428268 8.64599L0.984497 13.4433L3.98283 9.65733L2.41496 8.41564ZM1.86271 3.65265L3.8494 3.42231L3.61902 1.43532L1.63207 1.666L1.86271 3.65265ZM0.851269 3.77008L0.620627 1.78342L-1.36603 2.01407L-1.13539 4.00072L0.851269 3.77008ZM1.5444 9.74039L-0.442261 9.97103L-0.439388 9.99577L-0.435901 10.0204L1.5444 9.74039ZM1.61397 10.2324L1.79797 12.2239L2.29345 12.1781L2.10945 10.1866L1.92545 8.19509L1.42997 8.24087L1.61397 10.2324ZM2.10945 10.1866L2.34009 12.1733L8.3104 11.4801L8.07976 9.49348L7.84911 7.50683L1.87881 8.19995L2.10945 10.1866ZM8.07976 9.49348L10.0664 9.26284L9.94899 8.2514L7.96233 8.48204L5.97568 8.71269L6.0931 9.72413L8.07976 9.49348ZM7.96233 8.48204L7.73096 6.49547L2.96721 7.0503L3.19858 9.03687L3.42996 11.0234L8.19371 10.4686L7.96233 8.48204ZM3.19858 9.03687L4.76645 10.2786L10.9948 2.41414L9.4269 1.17245L7.85903 -0.0692361L1.63072 7.79518L3.19858 9.03687ZM9.4269 1.17245L10.6686 -0.395413L9.88465 -1.01626L8.64296 0.551609L7.40127 2.11948L8.18521 2.74032L9.4269 1.17245ZM8.64296 0.551609L7.0751 -0.690081L0.847092 7.17395L2.41496 8.41564L3.98283 9.65733L10.2108 1.7933L8.64296 0.551609ZM2.41496 8.41564L4.40165 8.18529L3.8494 3.42231L1.86271 3.65265L-0.123981 3.883L0.428268 8.64599L2.41496 8.41564ZM1.86271 3.65265L1.63207 1.666L0.620627 1.78342L0.851269 3.77008L1.08191 5.75674L2.09335 5.63931L1.86271 3.65265ZM0.851269 3.77008L-1.13539 4.00072L-0.442261 9.97103L1.5444 9.74039L3.53105 9.50974L2.83793 3.53944L0.851269 3.77008ZM1.5444 9.74039L-0.435901 10.0204L-0.366325 10.5124L1.61397 10.2324L3.59427 9.95234L3.52469 9.46034L1.5444 9.74039Z" fill="white" mask="url(#path-1-inside-1_1_350)"/>
</svg>
