<svg width="31" height="31" viewBox="0 0 31 31" fill="none" xmlns="http://www.w3.org/2000/svg">
<path d="M15.5 27.9C18.7887 27.9 21.9427 26.5936 24.2681 24.2681C26.5936 21.9427 27.9 18.7887 27.9 15.5C27.9 12.2113 26.5936 9.05733 24.2681 6.73188C21.9427 4.40642 18.7887 3.1 15.5 3.1C12.2113 3.1 9.05733 4.40642 6.73188 6.73188C4.40642 9.05733 3.1 12.2113 3.1 15.5C3.1 18.7887 4.40642 21.9427 6.73188 24.2681C9.05733 26.5936 12.2113 27.9 15.5 27.9ZM15.5 0C17.5355 0 19.551 0.400919 21.4316 1.17987C23.3121 1.95882 25.0208 3.10054 26.4602 4.53984C27.8995 5.97915 29.0412 7.68786 29.8201 9.56841C30.5991 11.449 31 13.4645 31 15.5C31 19.6109 29.367 23.5533 26.4602 26.4602C23.5533 29.367 19.6109 31 15.5 31C6.9285 31 0 24.025 0 15.5C0 11.3891 1.63303 7.44666 4.53984 4.53984C7.44666 1.63303 11.3891 0 15.5 0ZM16.275 7.75V15.8875L23.25 20.026L22.0875 21.9325L13.95 17.05V7.75H16.275Z" fill="white"/>
</svg>
