<svg width="18" height="18" viewBox="0 0 18 18" fill="none" xmlns="http://www.w3.org/2000/svg">
<path d="M1.8639 15.9273C0.688684 15.6365 0.795707 14.4295 0.977136 13.8469C1.3298 12.7452 2.69664 11.6216 2.69664 10.4037C2.69664 7.70001 2.69664 6.95063 4.07468 5.34865C4.52167 4.8373 5.07058 4.4196 5.68818 4.12086L6.44651 3.75758C6.57983 3.68443 6.69549 3.5843 6.78569 3.46393C6.87589 3.34356 6.93853 3.20576 6.9694 3.05981C7.04172 2.57242 7.30402 2.13088 7.70184 1.82684C8.09965 1.52281 8.60242 1.37964 9.10578 1.42706C9.59991 1.39576 10.0881 1.54613 10.4739 1.84846C10.8597 2.15079 11.1149 2.58306 11.1892 3.05981C11.2248 3.20954 11.294 3.34975 11.3918 3.47038C11.4896 3.59101 11.6136 3.68909 11.7548 3.75758L12.5132 4.12086C12.8387 4.27966 13.1451 4.46693 13.4326 4.68264M14.5894 6.92284C15.2723 7.96304 15.2723 8.91986 15.2723 11.0836C15.2723 12.3005 16.6932 13.4965 17.0459 14.5893C17.1983 14.941 17.2073 15.336 17.0709 15.6938C16.9345 16.0516 16.6631 16.3453 16.312 16.5149C16.0792 16.6279 15.8206 16.6812 15.5608 16.6697H4.61286" fill="#5B5C58"/>
<path d="M1.8639 15.9273C0.688684 15.6365 0.795707 14.4295 0.977136 13.8469C1.3298 12.7452 2.69664 11.6216 2.69664 10.4037C2.69664 7.70001 2.69664 6.95063 4.07468 5.34865C4.52167 4.8373 5.07058 4.4196 5.68818 4.12086L6.44651 3.75758C6.57983 3.68443 6.69549 3.5843 6.78569 3.46393C6.87589 3.34356 6.93853 3.20576 6.9694 3.05981C7.04172 2.57242 7.30402 2.13088 7.70183 1.82684C8.09965 1.52281 8.60242 1.37964 9.10578 1.42706C9.59991 1.39576 10.0881 1.54613 10.4739 1.84846C10.8597 2.15079 11.1149 2.58306 11.1892 3.05981C11.2248 3.20954 11.294 3.34975 11.3918 3.47038C11.4896 3.59101 11.6136 3.68909 11.7548 3.75758L12.5132 4.12086C12.8387 4.27966 13.1451 4.46693 13.4326 4.68264M14.5894 6.92284C15.2723 7.96304 15.2723 8.91986 15.2723 11.0836C15.2723 12.3005 16.6932 13.4965 17.0459 14.5893C17.1983 14.941 17.2073 15.336 17.0709 15.6938C16.9345 16.0516 16.6631 16.3453 16.312 16.5149C16.0792 16.6279 15.8206 16.6812 15.5608 16.6697H4.61286" stroke="black" stroke-width="1.5" stroke-linecap="round" stroke-linejoin="round"/>
</svg>
