<svg width="22" height="15" viewBox="0 0 22 15" fill="none" xmlns="http://www.w3.org/2000/svg">
<path d="M2.86319 1.875H20.045V0H2.86319C1.81319 0 0.954102 0.84375 0.954102 1.875V13.125C0.954102 14.1562 1.81319 15 2.86319 15H6.68137V13.125H2.86319V1.875ZM12.4086 7.5H8.59047V9.16875C8.00819 9.68437 7.63592 10.4156 7.63592 11.25C7.63592 12.0844 8.00819 12.8156 8.59047 13.3312V15H12.4086V13.3312C12.9909 12.8156 13.3632 12.075 13.3632 11.25C13.3632 10.425 12.9909 9.68437 12.4086 9.16875V7.5ZM10.4996 12.6562C9.70728 12.6562 9.06774 12.0281 9.06774 11.25C9.06774 10.4719 9.70728 9.84375 10.4996 9.84375C11.2918 9.84375 11.9314 10.4719 11.9314 11.25C11.9314 12.0281 11.2918 12.6562 10.4996 12.6562ZM20.9996 3.75H15.2723C14.795 3.75 14.3177 4.21875 14.3177 4.6875V14.0625C14.3177 14.5312 14.795 15 15.2723 15H20.9996C21.4768 15 21.9541 14.5312 21.9541 14.0625V4.6875C21.9541 4.21875 21.4768 3.75 20.9996 3.75ZM20.045 13.125H16.2268V5.625H20.045V13.125Z" fill="black"/>
</svg>
