<svg width="18" height="18" viewBox="0 0 18 18" fill="none" xmlns="http://www.w3.org/2000/svg">
<path d="M1.86408 15.9273C0.688867 15.6365 0.79589 14.4295 0.977319 13.8469C1.32998 12.7452 2.69682 11.6216 2.69682 10.4037C2.69682 7.70001 2.69682 6.95063 4.07487 5.34865C4.52186 4.8373 5.07077 4.4196 5.68836 4.12086L6.4467 3.75758C6.58001 3.68443 6.69567 3.5843 6.78587 3.46393C6.87607 3.34356 6.93871 3.20576 6.96958 3.05981C7.04191 2.57242 7.3042 2.13088 7.70202 1.82684C8.09983 1.52281 8.60261 1.37964 9.10596 1.42706C9.6001 1.39576 10.0883 1.54613 10.4741 1.84846C10.8598 2.15079 11.1151 2.58306 11.1893 3.05981C11.225 3.20954 11.2941 3.34975 11.3919 3.47038C11.4897 3.59101 11.6137 3.68909 11.755 3.75758L12.5134 4.12086C12.8388 4.27966 13.1453 4.46693 13.4327 4.68264M14.5896 6.92284C15.2725 7.96304 15.2725 8.91986 15.2725 11.0836C15.2725 12.3005 16.6934 13.4965 17.046 14.5893C17.1985 14.941 17.2074 15.336 17.0711 15.6938C16.9347 16.0516 16.6633 16.3453 16.3122 16.5149C16.0794 16.6279 15.8208 16.6812 15.561 16.6697H4.61304" fill="#5B5C58"/>
<path d="M1.86408 15.9273C0.688867 15.6365 0.79589 14.4295 0.977319 13.8469C1.32998 12.7452 2.69682 11.6216 2.69682 10.4037C2.69682 7.70001 2.69682 6.95063 4.07487 5.34865C4.52186 4.8373 5.07077 4.4196 5.68836 4.12086L6.4467 3.75758C6.58001 3.68443 6.69567 3.5843 6.78587 3.46393C6.87607 3.34356 6.93871 3.20576 6.96958 3.05981C7.04191 2.57242 7.3042 2.13088 7.70202 1.82684C8.09983 1.52281 8.60261 1.37964 9.10596 1.42706C9.6001 1.39576 10.0883 1.54613 10.4741 1.84846C10.8598 2.15079 11.1151 2.58306 11.1893 3.05981C11.225 3.20954 11.2941 3.34975 11.3919 3.47038C11.4897 3.59101 11.6137 3.68909 11.755 3.75758L12.5134 4.12086C12.8388 4.27966 13.1453 4.46693 13.4327 4.68264M14.5896 6.92284C15.2725 7.96304 15.2725 8.91986 15.2725 11.0836C15.2725 12.3005 16.6934 13.4965 17.046 14.5893C17.1985 14.941 17.2074 15.336 17.0711 15.6938C16.9347 16.0516 16.6633 16.3453 16.3122 16.5149C16.0794 16.6279 15.8208 16.6812 15.561 16.6697H4.61304" stroke="black" stroke-width="1.5" stroke-linecap="round" stroke-linejoin="round"/>
</svg>
