<svg width="26" height="24" viewBox="0 0 26 24" fill="none" xmlns="http://www.w3.org/2000/svg">
<path d="M9.65648 23.0664L9.16625 19.4762C8.9007 19.3827 8.65068 19.2706 8.41618 19.1397C8.18169 19.0088 7.95168 18.8685 7.72617 18.7189L4.08004 20.1213L0.709656 14.7923L3.86556 12.6045C3.84513 12.4736 3.83492 12.3476 3.83492 12.2264V11.4692C3.83492 11.3472 3.84513 11.2208 3.86556 11.0899L0.709656 8.90222L4.08004 3.57313L7.72617 4.97552C7.95087 4.82593 8.18577 4.6857 8.43089 4.55481C8.67601 4.42392 8.92113 4.31172 9.16625 4.21823L9.65648 0.628113H16.3972L16.8875 4.21823C17.153 4.31172 17.4035 4.42392 17.6388 4.55481C17.8741 4.6857 18.1037 4.82593 18.3276 4.97552L21.9737 3.57313L25.3441 8.90222L22.1882 11.0899C22.2086 11.2208 22.2188 11.3472 22.2188 11.4692V12.2253C22.2188 12.3472 22.1984 12.4736 22.1575 12.6045L25.3134 14.7923L21.943 20.1213L18.3276 18.7189C18.1029 18.8685 17.868 19.0088 17.6228 19.1397C17.3777 19.2706 17.1326 19.3827 16.8875 19.4762L16.3972 23.0664H9.65648ZM13.0881 15.7739C14.2729 15.7739 15.284 15.3906 16.1215 14.624C16.959 13.8573 17.3777 12.9318 17.3777 11.8472C17.3777 10.7627 16.959 9.83714 16.1215 9.0705C15.284 8.30386 14.2729 7.92054 13.0881 7.92054C11.883 7.92054 10.8666 8.30386 10.0389 9.0705C9.21118 9.83714 8.79775 10.7627 8.79857 11.8472C8.79938 12.9318 9.21323 13.8573 10.0401 14.624C10.867 15.3906 11.883 15.7739 13.0881 15.7739Z" fill="black"/>
</svg>
