<svg width="17" height="17" viewBox="0 0 17 17" fill="none" xmlns="http://www.w3.org/2000/svg">
<path d="M16.0119 0.402941C15.7633 0.30247 15.4896 0.276077 15.2255 0.327099C14.9614 0.378121 14.7188 0.504267 14.5283 0.689582L0.917384 13.9446C0.727107 14.1301 0.59756 14.3663 0.545121 14.6234C0.492682 14.8805 0.519707 15.147 0.622778 15.3892C0.72585 15.6313 0.900339 15.8383 1.12418 15.9839C1.34803 16.1295 1.61118 16.2072 1.88036 16.2071H15.4913C15.8523 16.2071 16.1985 16.0675 16.4537 15.8189C16.709 15.5703 16.8524 15.2332 16.8524 14.8816V1.62655C16.8529 1.36438 16.7732 1.10802 16.6235 0.890109C16.4738 0.6722 16.2609 0.50261 16.0119 0.402941ZM15.4913 14.8816H6.64419V10.2423L15.4913 1.62655V14.8816Z" fill="#5B5C58"/>
</svg>
