<svg width="9" height="6" viewBox="0 0 9 6" fill="none" xmlns="http://www.w3.org/2000/svg">
<path d="M8.08994 1.65881C8.09841 2.07096 8.02127 2.48053 7.86315 2.86293C7.70504 3.24533 7.46921 3.59267 7.16983 3.88412C6.87045 4.17556 6.51368 4.4051 6.12094 4.55895C5.7282 4.71279 5.30759 4.78778 4.88435 4.77941C4.46129 4.78751 4.0409 4.71232 3.6484 4.55835C3.2559 4.40438 2.89937 4.17481 2.60021 3.88339C2.30104 3.59197 2.0654 3.24472 1.90741 2.86245C1.74943 2.48019 1.67235 2.07079 1.6808 1.65881" fill="#5B5C58"/>
<path d="M8.08994 1.65881C8.09841 2.07096 8.02127 2.48053 7.86315 2.86293C7.70504 3.24533 7.46921 3.59267 7.16983 3.88412C6.87045 4.17556 6.51368 4.4051 6.12094 4.55895C5.7282 4.71279 5.30759 4.78778 4.88435 4.77941C4.46129 4.78751 4.0409 4.71232 3.6484 4.55835C3.2559 4.40438 2.89937 4.17481 2.60021 3.88339C2.30104 3.59197 2.0654 3.24472 1.90741 2.86245C1.74943 2.48019 1.67235 2.07079 1.6808 1.65881" stroke="black" stroke-width="1.5" stroke-linecap="round" stroke-linejoin="round"/>
</svg>
