<svg width="10" height="9" viewBox="0 0 10 9" fill="none" xmlns="http://www.w3.org/2000/svg">
<mask id="path-1-inside-1_1_347" fill="white">
<path d="M9.96532 0.42446L9.46914 0.387005L3.46683 0.0752418L3.41401 1.0921L8.2036 1.33911L0.751495 8.0553L1.42097 8.79813L8.8727 2.08228L8.62328 6.87068L9.64014 6.92349L9.95191 0.921175L9.96532 0.42446Z"/>
</mask>
<path d="M9.96532 0.42446L9.46914 0.387005L3.46683 0.0752418L3.41401 1.0921L8.2036 1.33911L0.751495 8.0553L1.42097 8.79813L8.8727 2.08228L8.62328 6.87068L9.64014 6.92349L9.95191 0.921175L9.96532 0.42446Z" fill="white"/>
<path d="M9.96532 0.42446L11.9646 0.47843L12.016 -1.42643L10.1159 -1.56987L9.96532 0.42446ZM9.46914 0.387005L9.61969 -1.60732L9.5963 -1.60909L9.57288 -1.6103L9.46914 0.387005ZM3.46683 0.0752418L3.57057 -1.92207L1.57326 -2.02581L1.46952 -0.0284992L3.46683 0.0752418ZM3.41401 1.0921L1.4167 0.988364L1.31292 2.98641L3.311 3.08945L3.41401 1.0921ZM8.2036 1.33911L9.54255 2.82477L13.1311 -0.409432L8.3066 -0.658238L8.2036 1.33911ZM0.751495 8.0553L-0.587458 6.56963L-2.07312 7.90859L-0.734171 9.39425L0.751495 8.0553ZM1.42097 8.79813L-0.0646937 10.1371L1.27426 11.6228L2.75993 10.2838L1.42097 8.79813ZM8.8727 2.08228L10.87 2.18631L11.1212 -2.63658L7.53375 0.59661L8.8727 2.08228ZM8.62328 6.87068L6.62599 6.76664L6.52194 8.76423L8.51954 8.86798L8.62328 6.87068ZM9.64014 6.92349L9.5364 8.9208L11.5337 9.02454L11.6375 7.02723L9.64014 6.92349ZM9.95191 0.921175L11.9492 1.02492L11.9505 1.00004L11.9512 0.975146L9.95191 0.921175ZM9.96532 0.42446L10.1159 -1.56987L9.61969 -1.60732L9.46914 0.387005L9.3186 2.38133L9.81477 2.41879L9.96532 0.42446ZM9.46914 0.387005L9.57288 -1.6103L3.57057 -1.92207L3.46683 0.0752418L3.36308 2.07255L9.3654 2.38431L9.46914 0.387005ZM3.46683 0.0752418L1.46952 -0.0284992L1.4167 0.988364L3.41401 1.0921L5.41132 1.19585L5.46413 0.178983L3.46683 0.0752418ZM3.41401 1.0921L3.311 3.08945L8.10059 3.33645L8.2036 1.33911L8.3066 -0.658238L3.51701 -0.905241L3.41401 1.0921ZM8.2036 1.33911L6.86464 -0.146558L-0.587458 6.56963L0.751495 8.0553L2.09045 9.54097L9.54255 2.82477L8.2036 1.33911ZM0.751495 8.0553L-0.734171 9.39425L-0.0646937 10.1371L1.42097 8.79813L2.90664 7.45918L2.23716 6.71635L0.751495 8.0553ZM1.42097 8.79813L2.75993 10.2838L10.2117 3.56794L8.8727 2.08228L7.53375 0.59661L0.0820186 7.31247L1.42097 8.79813ZM8.8727 2.08228L6.87541 1.97824L6.62599 6.76664L8.62328 6.87068L10.6206 6.97471L10.87 2.18631L8.8727 2.08228ZM8.62328 6.87068L8.51954 8.86798L9.5364 8.9208L9.64014 6.92349L9.74388 4.92618L8.72702 4.87337L8.62328 6.87068ZM9.64014 6.92349L11.6375 7.02723L11.9492 1.02492L9.95191 0.921175L7.9546 0.817434L7.64284 6.81975L9.64014 6.92349ZM9.95191 0.921175L11.9512 0.975146L11.9646 0.47843L9.96532 0.42446L7.96604 0.370489L7.95264 0.867205L9.95191 0.921175Z" fill="white" mask="url(#path-1-inside-1_1_347)"/>
</svg>
