<svg width="4" height="13" viewBox="0 0 4 13" fill="none" xmlns="http://www.w3.org/2000/svg">
<path d="M4 11.5C4 11.8978 3.78929 12.2794 3.41421 12.5607C3.03914 12.842 2.53043 13 2 13C1.46957 13 0.960859 12.842 0.585786 12.5607C0.210713 12.2794 0 11.8978 0 11.5C0 11.1022 0.210713 10.7206 0.585786 10.4393C0.960859 10.158 1.46957 10 2 10C2.53043 10 3.03914 10.158 3.41421 10.4393C3.78929 10.7206 4 11.1022 4 11.5ZM4 6.5C4 6.89782 3.78929 7.27936 3.41421 7.56066C3.03914 7.84196 2.53043 8 2 8C1.46957 8 0.960859 7.84196 0.585786 7.56066C0.210713 7.27936 0 6.89782 0 6.5C0 6.10218 0.210713 5.72064 0.585786 5.43934C0.960859 5.15804 1.46957 5 2 5C2.53043 5 3.03914 5.15804 3.41421 5.43934C3.78929 5.72064 4 6.10218 4 6.5ZM4 1.5C4 1.89782 3.78929 2.27936 3.41421 2.56066C3.03914 2.84196 2.53043 3 2 3C1.46957 3 0.960859 2.84196 0.585786 2.56066C0.210713 2.27936 0 1.89782 0 1.5C0 1.10218 0.210713 0.720644 0.585786 0.43934C0.960859 0.158035 1.46957 0 2 0C2.53043 0 3.03914 0.158035 3.41421 0.43934C3.78929 0.720644 4 1.10218 4 1.5Z" fill="black"/>
</svg>
