<svg width="25" height="25" viewBox="0 0 25 25" fill="none" xmlns="http://www.w3.org/2000/svg">
<path d="M9.29102 2.3584C5.45571 2.3584 2.3584 5.45571 2.3584 9.29102C2.3584 13.1263 5.4557 16.2236 9.29102 16.2236C13.1263 16.2236 16.2236 13.1263 16.2236 9.29102C16.2236 5.4557 13.1263 2.3584 9.29102 2.3584ZM16.2236 16.5361L16.083 16.3906L15.6973 15.9912L15.3691 15.6514L15.0117 15.959C13.4693 17.2849 11.4681 18.082 9.29102 18.082C7.5524 18.082 5.85286 17.5665 4.40723 16.6006C2.96155 15.6346 1.83432 14.2616 1.16895 12.6553C0.503605 11.049 0.329791 9.2814 0.668945 7.57617C1.00815 5.87088 1.84575 4.30464 3.0752 3.0752C4.30464 1.84575 5.87088 1.00815 7.57617 0.668945C9.2814 0.329791 11.049 0.503605 12.6553 1.16895C14.2616 1.83432 15.6346 2.96155 16.6006 4.40723C17.5665 5.85286 18.082 7.5524 18.082 9.29102C18.0836 11.3904 17.33 13.4208 15.959 15.0107L15.6504 15.3691L15.9912 15.6973L16.3906 16.083L16.5361 16.2236H17.6611L24.293 22.8691L22.8691 24.293L16.2236 17.6602V16.5361Z" fill="white" stroke="white"/>
</svg>
