<svg width="23" height="19" viewBox="0 0 23 19" fill="none" xmlns="http://www.w3.org/2000/svg">
<path d="M8.60108 0.723022H15.2269L17.4355 2.70034H21.8527C22.1456 2.70034 22.4265 2.8045 22.6336 2.98991C22.8406 3.17532 22.957 3.42679 22.957 3.689V17.5302C22.957 17.7924 22.8406 18.0439 22.6336 18.2293C22.4265 18.4147 22.1456 18.5189 21.8527 18.5189H1.97527C1.68239 18.5189 1.40151 18.4147 1.19441 18.2293C0.987317 18.0439 0.870972 17.7924 0.870972 17.5302V3.689C0.870972 3.42679 0.987317 3.17532 1.19441 2.98991C1.40151 2.8045 1.68239 2.70034 1.97527 2.70034H6.39248L8.60108 0.723022ZM11.914 16.5416C13.6713 16.5416 15.3566 15.9166 16.5991 14.8041C17.8417 13.6917 18.5398 12.1829 18.5398 10.6096C18.5398 9.03635 17.8417 7.52754 16.5991 6.41508C15.3566 5.30263 13.6713 4.67766 11.914 4.67766C10.1567 4.67766 8.47141 5.30263 7.22883 6.41508C5.98625 7.52754 5.28818 9.03635 5.28818 10.6096C5.28818 12.1829 5.98625 13.6917 7.22883 14.8041C8.47141 15.9166 10.1567 16.5416 11.914 16.5416ZM11.914 14.5642C10.7425 14.5642 9.61893 14.1476 8.79055 13.406C7.96216 12.6643 7.49678 11.6584 7.49678 10.6096C7.49678 9.56077 7.96216 8.55489 8.79055 7.81326C9.61893 7.07162 10.7425 6.65497 11.914 6.65497C13.0855 6.65497 14.209 7.07162 15.0374 7.81326C15.8658 8.55489 16.3312 9.56077 16.3312 10.6096C16.3312 11.6584 15.8658 12.6643 15.0374 13.406C14.209 14.1476 13.0855 14.5642 11.914 14.5642Z" fill="black"/>
</svg>
