<svg width="15" height="16" viewBox="0 0 15 16" fill="none" xmlns="http://www.w3.org/2000/svg">
<path d="M14.2279 0.625423C13.9995 0.530671 13.7482 0.505779 13.5056 0.553897C13.2631 0.602016 13.0403 0.720981 12.8654 0.895747L0.365578 13.3963C0.190835 13.5712 0.0718628 13.7939 0.0237048 14.0364C-0.0244533 14.2789 0.000365354 14.5302 0.0950227 14.7586C0.18968 14.987 0.349925 15.1822 0.555497 15.3195C0.761069 15.4568 1.00274 15.53 1.24994 15.53H13.7498C14.0813 15.53 14.3992 15.3983 14.6336 15.1639C14.8681 14.9294 14.9998 14.6115 14.9998 14.2799V1.77938C15.0002 1.53214 14.927 1.29036 14.7895 1.08486C14.6521 0.879355 14.4566 0.719418 14.2279 0.625423ZM13.7498 14.2799H5.62488V9.90475L13.7498 1.77938V14.2799Z" fill="#5B5C58"/>
</svg>
