<svg width="18" height="16" viewBox="0 0 18 16" fill="none" xmlns="http://www.w3.org/2000/svg">
<path d="M6.40523 0.253906H11.5948L13.3246 1.98375H16.7843C17.0137 1.98375 17.2337 2.07488 17.3959 2.23708C17.5581 2.39929 17.6492 2.61928 17.6492 2.84868V14.9576C17.6492 15.187 17.5581 15.407 17.3959 15.5692C17.2337 15.7314 17.0137 15.8225 16.7843 15.8225H1.21569C0.9863 15.8225 0.766304 15.7314 0.604099 15.5692C0.441895 15.407 0.350769 15.187 0.350769 14.9576V2.84868C0.350769 2.61928 0.441895 2.39929 0.604099 2.23708C0.766304 2.07488 0.9863 1.98375 1.21569 1.98375H4.67538L6.40523 0.253906ZM9 14.0927C10.3763 14.0927 11.6963 13.5459 12.6696 12.5727C13.6428 11.5995 14.1895 10.2795 14.1895 8.90314C14.1895 7.52678 13.6428 6.20681 12.6696 5.23358C11.6963 4.26035 10.3763 3.7136 9 3.7136C7.62365 3.7136 6.30367 4.26035 5.33044 5.23358C4.35721 6.20681 3.81046 7.52678 3.81046 8.90314C3.81046 10.2795 4.35721 11.5995 5.33044 12.5727C6.30367 13.5459 7.62365 14.0927 9 14.0927ZM9 12.3628C8.08243 12.3628 7.20244 11.9983 6.55363 11.3495C5.90481 10.7007 5.54031 9.8207 5.54031 8.90314C5.54031 7.98557 5.90481 7.10558 6.55363 6.45676C7.20244 5.80795 8.08243 5.44344 9 5.44344C9.91757 5.44344 10.7976 5.80795 11.4464 6.45676C12.0952 7.10558 12.4597 7.98557 12.4597 8.90314C12.4597 9.8207 12.0952 10.7007 11.4464 11.3495C10.7976 11.9983 9.91757 12.3628 9 12.3628Z" fill="black"/>
</svg>
