<svg width="21" height="20" viewBox="0 0 21 20" fill="none" xmlns="http://www.w3.org/2000/svg">
<path d="M9.9541 7H11.9541V5H9.9541M10.9541 18C6.5441 18 2.9541 14.41 2.9541 10C2.9541 5.59 6.5441 2 10.9541 2C15.3641 2 18.9541 5.59 18.9541 10C18.9541 14.41 15.3641 18 10.9541 18ZM10.9541 0C9.64088 0 8.34052 0.258658 7.12727 0.761205C5.91401 1.26375 4.81162 2.00035 3.88303 2.92893C2.00767 4.8043 0.954102 7.34784 0.954102 10C0.954102 12.6522 2.00767 15.1957 3.88303 17.0711C4.81162 17.9997 5.91401 18.7362 7.12727 19.2388C8.34052 19.7413 9.64088 20 10.9541 20C13.6063 20 16.1498 18.9464 18.0252 17.0711C19.9005 15.1957 20.9541 12.6522 20.9541 10C20.9541 8.68678 20.6954 7.38642 20.1929 6.17317C19.6904 4.95991 18.9538 3.85752 18.0252 2.92893C17.0966 2.00035 15.9942 1.26375 14.7809 0.761205C13.5677 0.258658 12.2673 0 10.9541 0ZM9.9541 15H11.9541V9H9.9541V15Z" fill="black"/>
</svg>
