<svg width="19" height="26" viewBox="0 0 19 26" fill="none" xmlns="http://www.w3.org/2000/svg">
<path d="M9.9541 9.1C8.71124 9.1 7.65053 8.65583 6.77196 7.7675C5.89339 6.87917 5.4541 5.80667 5.4541 4.55C5.4541 3.29333 5.89339 2.22083 6.77196 1.3325C7.65053 0.444167 8.71124 0 9.9541 0C11.197 0 12.2577 0.444167 13.1362 1.3325C14.0148 2.22083 14.4541 3.29333 14.4541 4.55C14.4541 5.80667 14.0148 6.87917 13.1362 7.7675C12.2577 8.65583 11.197 9.1 9.9541 9.1ZM9.9541 6.5C10.4898 6.5 10.9454 6.31063 11.3208 5.9319C11.6962 5.55317 11.8835 5.09253 11.8827 4.55C11.8818 4.00747 11.6945 3.54727 11.3208 3.1694C10.9471 2.79153 10.4915 2.60173 9.9541 2.6C9.41667 2.59827 8.96153 2.78807 8.58867 3.1694C8.21581 3.55073 8.0281 4.01093 8.02553 4.55C8.02296 5.08907 8.21067 5.5497 8.58867 5.9319C8.96667 6.3141 9.42181 6.50347 9.9541 6.5ZM9.9541 26L2.23982 18.2C1.81124 17.7667 1.48982 17.2792 1.27553 16.7375C1.06124 16.1958 0.954102 15.6 0.954102 14.95C0.954102 13.6717 1.38824 12.5935 2.25653 11.7156C3.12482 10.8377 4.19067 10.3991 5.4541 10.4C6.07553 10.4 6.64896 10.5192 7.17439 10.7575C7.69982 10.9958 8.17639 11.3317 8.6041 11.765L9.9541 13.13L11.3041 11.765C11.7327 11.3317 12.2097 10.9958 12.7351 10.7575C13.2605 10.5192 13.8335 10.4 14.4541 10.4C15.7184 10.4 16.7847 10.839 17.653 11.7169C18.5212 12.5948 18.955 13.6725 18.9541 14.95C18.9541 15.6 18.847 16.1958 18.6327 16.7375C18.4184 17.2792 18.097 17.7667 17.6684 18.2L9.9541 26ZM9.9541 22.295L15.8041 16.38C15.997 16.185 16.1418 15.9627 16.2387 15.7131C16.3355 15.4635 16.3835 15.2091 16.3827 14.95C16.3827 14.43 16.2005 13.975 15.8362 13.585C15.472 13.195 15.0112 13 14.4541 13C14.197 13 13.9668 13.0381 13.7637 13.1144C13.5605 13.1907 13.3621 13.3259 13.1684 13.52L9.9541 16.77L6.73982 13.52C6.61124 13.39 6.44539 13.2708 6.24224 13.1625C6.0391 13.0542 5.77639 13 5.4541 13C4.89696 13 4.43624 13.195 4.07196 13.585C3.70767 13.975 3.52553 14.43 3.52553 14.95C3.52553 15.21 3.5791 15.454 3.68624 15.6819C3.79339 15.9098 3.93267 16.1209 4.1041 16.315L9.9541 22.295Z" fill="black"/>
</svg>
