<svg width="18" height="18" viewBox="0 0 18 18" fill="none" xmlns="http://www.w3.org/2000/svg">
<path d="M1.86402 15.9273C0.688806 15.6365 0.795829 14.4295 0.977258 13.8469C1.32992 12.7452 2.69676 11.6216 2.69676 10.4037C2.69676 7.70001 2.69676 6.95063 4.07481 5.34865C4.5218 4.8373 5.07071 4.4196 5.6883 4.12086L6.44664 3.75758C6.57995 3.68443 6.69561 3.5843 6.78581 3.46393C6.87601 3.34356 6.93865 3.20576 6.96952 3.05981C7.04184 2.57242 7.30414 2.13088 7.70196 1.82684C8.09977 1.52281 8.60255 1.37964 9.1059 1.42706C9.60003 1.39576 10.0882 1.54613 10.474 1.84846C10.8598 2.15079 11.115 2.58306 11.1893 3.05981C11.2249 3.20954 11.2941 3.34975 11.3919 3.47038C11.4897 3.59101 11.6137 3.68909 11.755 3.75758L12.5133 4.12086C12.8388 4.27966 13.1452 4.46693 13.4327 4.68264M14.5895 6.92284C15.2725 7.96304 15.2725 8.91986 15.2725 11.0836C15.2725 12.3005 16.6933 13.4965 17.046 14.5893C17.1984 14.941 17.2074 15.336 17.071 15.6938C16.9346 16.0516 16.6632 16.3453 16.3121 16.5149C16.0793 16.6279 15.8208 16.6812 15.5609 16.6697H4.61298" fill="#5B5C58"/>
<path d="M1.86402 15.9273C0.688806 15.6365 0.795829 14.4295 0.977258 13.8469C1.32992 12.7452 2.69676 11.6216 2.69676 10.4037C2.69676 7.70001 2.69676 6.95063 4.0748 5.34865C4.5218 4.8373 5.07071 4.4196 5.6883 4.12086L6.44664 3.75758C6.57995 3.68443 6.69561 3.5843 6.78581 3.46393C6.87601 3.34356 6.93865 3.20576 6.96952 3.05981C7.04184 2.57242 7.30414 2.13088 7.70196 1.82684C8.09977 1.52281 8.60255 1.37964 9.1059 1.42706C9.60003 1.39576 10.0882 1.54613 10.474 1.84846C10.8598 2.15079 11.115 2.58306 11.1893 3.05981C11.2249 3.20954 11.2941 3.34975 11.3919 3.47038C11.4897 3.59101 11.6137 3.68909 11.755 3.75758L12.5133 4.12086C12.8388 4.27966 13.1452 4.46693 13.4327 4.68264M14.5895 6.92284C15.2725 7.96304 15.2725 8.91986 15.2725 11.0836C15.2725 12.3005 16.6933 13.4965 17.046 14.5893C17.1984 14.941 17.2074 15.336 17.071 15.6938C16.9346 16.0516 16.6632 16.3453 16.3121 16.5149C16.0793 16.6279 15.8208 16.6812 15.5609 16.6697H4.61298" stroke="black" stroke-width="1.5" stroke-linecap="round" stroke-linejoin="round"/>
</svg>
