<svg width="14" height="16" viewBox="0 0 14 16" fill="none" xmlns="http://www.w3.org/2000/svg">
<path fill-rule="evenodd" clip-rule="evenodd" d="M7.75 12.993V15.2672H6.25V12.993C4.53323 12.8546 2.94541 12.2464 1.79173 11.2853C0.638056 10.3242 -7.26502e-05 9.07801 6.20374e-09 7.78627V6.29009H1.5V7.78627C1.5 8.87751 2.07946 9.92405 3.11091 10.6957C4.14236 11.4673 5.54131 11.9008 7 11.9008C8.45869 11.9008 9.85764 11.4673 10.8891 10.6957C11.9205 9.92405 12.5 8.87751 12.5 7.78627V6.29009H14V7.78627C14.0001 9.07801 13.3619 10.3242 12.2083 11.2853C11.0546 12.2464 9.46677 12.8546 7.75 12.993ZM3 3.29773C3 2.5041 3.42143 1.74298 4.17157 1.1818C4.92172 0.620625 5.93913 0.305359 7 0.305359C8.06087 0.305359 9.07828 0.620625 9.82843 1.1818C10.5786 1.74298 11 2.5041 11 3.29773V7.78627C11 8.5799 10.5786 9.34102 9.82843 9.9022C9.07828 10.4634 8.06087 10.7786 7 10.7786C5.93913 10.7786 4.92172 10.4634 4.17157 9.9022C3.42143 9.34102 3 8.5799 3 7.78627V3.29773Z" fill="black"/>
</svg>
