<svg width="38" height="40" viewBox="0 0 38 40" fill="none" xmlns="http://www.w3.org/2000/svg">
<path d="M7.26713 6.66126C6.19122 4.77893 4.92659 2.8034 3.47323 0.73468C1.19797 4.71424 7.72867e-05 9.2287 3.73972e-09 13.8242C-7.72792e-05 18.4196 1.19766 22.9341 3.47279 26.9138C5.74793 30.8934 9.02026 34.1979 12.9608 36.4951C16.9013 38.7922 21.3712 40.001 25.9209 40C28.3064 36.6205 29.9261 34.1839 30.7799 32.6902C32.4199 29.8211 34.5408 25.7134 37.1429 20.3672V20.3642C36.0061 22.3549 34.3704 24.0082 32.4004 25.1578C30.4303 26.3074 28.1952 26.9129 25.92 26.9132C23.6448 26.9136 21.4095 26.3088 19.4391 25.1598C17.4687 24.0108 15.8325 22.358 14.6952 20.3676C11.1613 13.7107 8.68525 9.14176 7.26713 6.66126Z" fill="#229342"/>
</svg>
