<svg width="17" height="24" viewBox="0 0 17 24" fill="none" xmlns="http://www.w3.org/2000/svg">
<mask id="path-1-inside-1_1_182" fill="white">
<path fill-rule="evenodd" clip-rule="evenodd" d="M4.76 5.14286V12C4.76 12.4953 4.85674 12.9857 5.04469 13.4433C5.23264 13.9008 5.50813 14.3166 5.85542 14.6668C6.20271 15.017 6.61501 15.2948 7.06876 15.4843C7.52252 15.6739 8.00886 15.7714 8.5 15.7714C8.99114 15.7714 9.47748 15.6739 9.93124 15.4843C10.385 15.2948 10.7973 15.017 11.1446 14.6668C11.4919 14.3166 11.7674 13.9008 11.9553 13.4433C12.1433 12.9857 12.24 12.4953 12.24 12V5.14286C12.24 4.14261 11.846 3.18333 11.1446 2.47605C10.4432 1.76877 9.49191 1.37143 8.5 1.37143C7.50809 1.37143 6.55681 1.76877 5.85542 2.47605C5.15403 3.18333 4.76 4.14261 4.76 5.14286ZM9.18 20.544V24H7.82V20.544C5.69021 20.3716 3.70292 19.3968 2.25379 17.8135C0.804654 16.2302 -1.09746e-05 14.1546 1.1226e-10 12V10.2857H1.36V12C1.36 13.9096 2.11225 15.7409 3.45126 17.0912C4.79027 18.4414 6.60635 19.2 8.5 19.2C10.3936 19.2 12.2097 18.4414 13.5487 17.0912C14.8878 15.7409 15.64 13.9096 15.64 12V10.2857H17V12C17 14.1546 16.1953 16.2302 14.7462 17.8135C13.2971 19.3968 11.3098 20.3716 9.18 20.544ZM3.4 5.14286C3.4 3.77889 3.93732 2.47078 4.89376 1.50631C5.85019 0.541835 7.1474 0 8.5 0C9.8526 0 11.1498 0.541835 12.1062 1.50631C13.0627 2.47078 13.6 3.77889 13.6 5.14286V12C13.6 13.364 13.0627 14.6721 12.1062 15.6365C11.1498 16.601 9.8526 17.1429 8.5 17.1429C7.1474 17.1429 5.85019 16.601 4.89376 15.6365C3.93732 14.6721 3.4 13.364 3.4 12V5.14286Z"/>
</mask>
<path fill-rule="evenodd" clip-rule="evenodd" d="M4.76 5.14286V12C4.76 12.4953 4.85674 12.9857 5.04469 13.4433C5.23264 13.9008 5.50813 14.3166 5.85542 14.6668C6.20271 15.017 6.61501 15.2948 7.06876 15.4843C7.52252 15.6739 8.00886 15.7714 8.5 15.7714C8.99114 15.7714 9.47748 15.6739 9.93124 15.4843C10.385 15.2948 10.7973 15.017 11.1446 14.6668C11.4919 14.3166 11.7674 13.9008 11.9553 13.4433C12.1433 12.9857 12.24 12.4953 12.24 12V5.14286C12.24 4.14261 11.846 3.18333 11.1446 2.47605C10.4432 1.76877 9.49191 1.37143 8.5 1.37143C7.50809 1.37143 6.55681 1.76877 5.85542 2.47605C5.15403 3.18333 4.76 4.14261 4.76 5.14286ZM9.18 20.544V24H7.82V20.544C5.69021 20.3716 3.70292 19.3968 2.25379 17.8135C0.804654 16.2302 -1.09746e-05 14.1546 1.1226e-10 12V10.2857H1.36V12C1.36 13.9096 2.11225 15.7409 3.45126 17.0912C4.79027 18.4414 6.60635 19.2 8.5 19.2C10.3936 19.2 12.2097 18.4414 13.5487 17.0912C14.8878 15.7409 15.64 13.9096 15.64 12V10.2857H17V12C17 14.1546 16.1953 16.2302 14.7462 17.8135C13.2971 19.3968 11.3098 20.3716 9.18 20.544ZM3.4 5.14286C3.4 3.77889 3.93732 2.47078 4.89376 1.50631C5.85019 0.541835 7.1474 0 8.5 0C9.8526 0 11.1498 0.541835 12.1062 1.50631C13.0627 2.47078 13.6 3.77889 13.6 5.14286V12C13.6 13.364 13.0627 14.6721 12.1062 15.6365C11.1498 16.601 9.8526 17.1429 8.5 17.1429C7.1474 17.1429 5.85019 16.601 4.89376 15.6365C3.93732 14.6721 3.4 13.364 3.4 12V5.14286Z" fill="white"/>
<path d="M4.76 5.14286L-0.24 5.14286V5.14286H4.76ZM4.76 12H9.76H4.76ZM8.5 15.7714V20.7714V15.7714ZM12.24 12H7.24H12.24ZM12.24 5.14286H17.24V5.14286L12.24 5.14286ZM9.18 20.544L8.77666 15.5603L4.18 15.9323V20.544H9.18ZM9.18 24V29H14.18V24H9.18ZM7.82 24H2.82V29H7.82V24ZM7.82 20.544H12.82V15.9323L8.22334 15.5603L7.82 20.544ZM1.1226e-10 12L5 12V12H1.1226e-10ZM1.1226e-10 10.2857V5.28571H-5V10.2857H1.1226e-10ZM1.36 10.2857H6.36V5.28571H1.36V10.2857ZM1.36 12H-3.64H1.36ZM8.5 19.2V24.2V19.2ZM15.64 12H20.64H15.64ZM15.64 10.2857V5.28571H10.64V10.2857H15.64ZM17 10.2857H22V5.28571H17V10.2857ZM17 12H12V12L17 12ZM8.5 0V-5V0ZM4.76 5.14286H-0.24V12H4.76H9.76V5.14286H4.76ZM4.76 12L-0.24 12C-0.24 13.1461 -0.0161901 14.2819 0.419669 15.343L5.04469 13.4433L9.66971 11.5435C9.72967 11.6894 9.76 11.8444 9.76 12H4.76ZM5.04469 13.4433L0.419669 15.343C0.85556 16.4042 1.49555 17.3711 2.30512 18.1875L5.85542 14.6668L9.40572 11.1461C9.52071 11.262 9.60973 11.3974 9.66971 11.5435L5.04469 13.4433ZM5.85542 14.6668L2.30512 18.1875C3.11478 19.004 4.07826 19.6539 5.14165 20.098L7.06876 15.4843L8.99588 10.8706C9.15175 10.9358 9.29064 11.03 9.40572 11.1461L5.85542 14.6668ZM7.06876 15.4843L5.14165 20.098C6.20511 20.5422 7.34641 20.7714 8.5 20.7714V15.7714V10.7714C8.6713 10.7714 8.83993 10.8055 8.99588 10.8706L7.06876 15.4843ZM8.5 15.7714V20.7714C9.65359 20.7714 10.7949 20.5422 11.8584 20.098L9.93124 15.4843L8.00412 10.8706C8.16007 10.8055 8.3287 10.7714 8.5 10.7714V15.7714ZM9.93124 15.4843L11.8584 20.098C12.9217 19.6539 13.8852 19.004 14.6949 18.1875L11.1446 14.6668L7.59428 11.1461C7.70936 11.03 7.84825 10.9358 8.00412 10.8706L9.93124 15.4843ZM11.1446 14.6668L14.6949 18.1875C15.5044 17.3711 16.1444 16.4042 16.5803 15.343L11.9553 13.4433L7.33029 11.5435C7.39027 11.3974 7.47929 11.262 7.59428 11.1461L11.1446 14.6668ZM11.9553 13.4433L16.5803 15.343C17.0162 14.2819 17.24 13.1461 17.24 12L12.24 12H7.24C7.24 11.8444 7.27033 11.6894 7.33029 11.5435L11.9553 13.4433ZM12.24 12H17.24V5.14286H12.24H7.24V12H12.24ZM12.24 5.14286L17.24 5.14286C17.24 2.82997 16.3293 0.603461 14.6949 -1.04466L11.1446 2.47605L7.59428 5.99676C7.36267 5.76321 7.24 5.45526 7.24 5.14286H12.24ZM11.1446 2.47605L14.6949 -1.04466C13.0591 -2.69419 10.8316 -3.62857 8.5 -3.62857V1.37143V6.37143C8.15226 6.37143 7.8273 6.23174 7.59428 5.99676L11.1446 2.47605ZM8.5 1.37143V-3.62857C6.16844 -3.62857 3.94091 -2.69419 2.30512 -1.04466L5.85542 2.47605L9.40572 5.99676C9.1727 6.23174 8.84774 6.37143 8.5 6.37143V1.37143ZM5.85542 2.47605L2.30512 -1.04466C0.670743 0.603461 -0.24 2.82997 -0.24 5.14286L4.76 5.14286H9.76C9.76 5.45526 9.63733 5.76321 9.40572 5.99676L5.85542 2.47605ZM9.18 20.544H4.18V24H9.18H14.18V20.544H9.18ZM9.18 24V19H7.82V24V29H9.18V24ZM7.82 24H12.82V20.544H7.82H2.82V24H7.82ZM7.82 20.544L8.22334 15.5603C7.3586 15.4903 6.54288 15.094 5.94214 14.4376L2.25379 17.8135L-1.43456 21.1893C0.862954 23.6995 4.02182 25.253 7.41666 25.5277L7.82 20.544ZM2.25379 17.8135L5.94214 14.4376C5.34031 13.7801 5 12.9103 5 12L1.1226e-10 12L-5 12C-5.00002 15.3989 -3.731 18.6802 -1.43456 21.1893L2.25379 17.8135ZM1.1226e-10 12H5V10.2857H1.1226e-10H-5V12H1.1226e-10ZM1.1226e-10 10.2857V15.2857H1.36V10.2857V5.28571H1.1226e-10V10.2857ZM1.36 10.2857H-3.64V12H1.36H6.36V10.2857H1.36ZM1.36 12H-3.64C-3.64 15.2222 -2.37104 18.3208 -0.0990379 20.6119L3.45126 17.0912L7.00155 13.5705C6.59554 13.161 6.36 12.5969 6.36 12L1.36 12ZM3.45126 17.0912L-0.0990379 20.6119C2.17437 22.9044 5.26671 24.2 8.5 24.2V19.2V14.2C7.946 14.2 7.40616 13.9785 7.00155 13.5705L3.45126 17.0912ZM8.5 19.2V24.2C11.7333 24.2 14.8256 22.9044 17.099 20.6119L13.5487 17.0912L9.99845 13.5705C9.59384 13.9785 9.054 14.2 8.5 14.2V19.2ZM13.5487 17.0912L17.099 20.6119C19.371 18.3208 20.64 15.2222 20.64 12H15.64L10.64 12C10.64 12.5969 10.4045 13.161 9.99845 13.5705L13.5487 17.0912ZM15.64 12H20.64V10.2857H15.64H10.64V12H15.64ZM15.64 10.2857V15.2857H17V10.2857V5.28571H15.64V10.2857ZM17 10.2857H12V12H17H22V10.2857H17ZM17 12L12 12C12 12.9103 11.6597 13.7801 11.0579 14.4376L14.7462 17.8135L18.4346 21.1893C20.731 18.6802 22 15.3989 22 12L17 12ZM14.7462 17.8135L11.0579 14.4376C10.4571 15.094 9.6414 15.4903 8.77666 15.5603L9.18 20.544L9.58334 25.5277C12.9782 25.253 16.137 23.6995 18.4346 21.1893L14.7462 17.8135ZM3.4 5.14286H8.4C8.4 5.09153 8.42061 5.05065 8.44405 5.02702L4.89376 1.50631L1.34346 -2.0144C-0.545972 -0.109092 -1.6 2.46624 -1.6 5.14286H3.4ZM4.89376 1.50631L8.44405 5.02702C8.46609 5.0048 8.48704 5 8.5 5V0V-5C5.80775 -5 3.2343 -3.92113 1.34346 -2.0144L4.89376 1.50631ZM8.5 0V5C8.51295 5 8.53391 5.0048 8.55595 5.02702L12.1062 1.50631L15.6565 -2.0144C13.7657 -3.92113 11.1923 -5 8.5 -5V0ZM12.1062 1.50631L8.55595 5.02702C8.57939 5.05065 8.6 5.09153 8.6 5.14286H13.6H18.6C18.6 2.46624 17.546 -0.109092 15.6565 -2.0144L12.1062 1.50631ZM13.6 5.14286H8.6V12H13.6H18.6V5.14286H13.6ZM13.6 12H8.6C8.6 12.0513 8.57939 12.0922 8.55595 12.1158L12.1062 15.6365L15.6565 19.1573C17.546 17.2519 18.6 14.6766 18.6 12H13.6ZM12.1062 15.6365L8.55595 12.1158C8.53391 12.1381 8.51295 12.1429 8.5 12.1429V17.1429V22.1429C11.1923 22.1429 13.7657 21.064 15.6565 19.1573L12.1062 15.6365ZM8.5 17.1429V12.1429C8.48705 12.1429 8.46609 12.1381 8.44405 12.1158L4.89376 15.6365L1.34346 19.1573C3.23429 21.064 5.80775 22.1429 8.5 22.1429V17.1429ZM4.89376 15.6365L8.44405 12.1158C8.42061 12.0922 8.4 12.0513 8.4 12H3.4H-1.6C-1.6 14.6766 -0.545972 17.2519 1.34346 19.1573L4.89376 15.6365ZM3.4 12H8.4V5.14286H3.4H-1.6V12H3.4Z" fill="white" mask="url(#path-1-inside-1_1_182)"/>
</svg>
