<svg width="19" height="18" viewBox="0 0 19 18" fill="none" xmlns="http://www.w3.org/2000/svg">
<path d="M13.6355 11.3208H12.8225L12.5343 11.0429C13.5778 9.83266 14.1513 8.28753 14.1501 6.68954C14.1501 5.36647 13.7577 4.07312 13.0227 2.97303C12.2876 1.87294 11.2429 1.01553 10.0205 0.509214C8.79816 0.00289847 7.45311 -0.129577 6.15547 0.128541C4.85783 0.386658 3.66587 1.02377 2.73032 1.95932C1.79477 2.89487 1.15765 4.08683 0.899537 5.38447C0.641419 6.68212 0.773895 8.02716 1.28021 9.24951C1.78652 10.4719 2.64394 11.5166 3.74403 12.2517C4.84412 12.9867 6.13747 13.3791 7.46053 13.3791C9.11748 13.3791 10.6406 12.7719 11.8139 11.7633L12.0918 12.0515V12.8645L17.2375 18L18.771 16.4666L13.6355 11.3208ZM7.46053 11.3208C4.89793 11.3208 2.82932 9.25214 2.82932 6.68954C2.82932 4.12693 4.89793 2.05832 7.46053 2.05832C10.0231 2.05832 12.0918 4.12693 12.0918 6.68954C12.0918 9.25214 10.0231 11.3208 7.46053 11.3208Z" fill="black"/>
</svg>
