<svg width="10" height="9" viewBox="0 0 10 9" fill="none" xmlns="http://www.w3.org/2000/svg">
<mask id="path-1-inside-1_1_346" fill="white">
<path d="M9.72435 0.54653L9.22817 0.509076L3.22586 0.197312L3.17304 1.21418L7.96263 1.46118L0.510529 8.17737L1.18001 8.9202L8.63173 2.20435L8.38231 6.99275L9.39918 7.04556L9.71094 1.04325L9.72435 0.54653Z"/>
</mask>
<path d="M9.72435 0.54653L9.22817 0.509076L3.22586 0.197312L3.17304 1.21418L7.96263 1.46118L0.510529 8.17737L1.18001 8.9202L8.63173 2.20435L8.38231 6.99275L9.39918 7.04556L9.71094 1.04325L9.72435 0.54653Z" fill="white"/>
<path d="M9.72435 0.54653L11.7236 0.600501L11.775 -1.30436L9.87489 -1.4478L9.72435 0.54653ZM9.22817 0.509076L9.37872 -1.48525L9.35533 -1.48702L9.33192 -1.48823L9.22817 0.509076ZM3.22586 0.197312L3.3296 -1.8L1.33229 -1.90374L1.22855 0.0935711L3.22586 0.197312ZM3.17304 1.21418L1.17573 1.11043L1.07196 3.10848L3.07004 3.21152L3.17304 1.21418ZM7.96263 1.46118L9.30158 2.94684L12.8902 -0.287362L8.06563 -0.536167L7.96263 1.46118ZM0.510529 8.17737L-0.828425 6.6917L-2.31409 8.03066L-0.975137 9.51632L0.510529 8.17737ZM1.18001 8.9202L-0.305661 10.2592L1.03329 11.7448L2.51896 10.4059L1.18001 8.9202ZM8.63173 2.20435L10.629 2.30838L10.8802 -2.51451L7.29278 0.71868L8.63173 2.20435ZM8.38231 6.99275L6.38502 6.88871L6.28097 8.8863L8.27857 8.99005L8.38231 6.99275ZM9.39918 7.04556L9.29544 9.04287L11.2927 9.14661L11.3965 7.1493L9.39918 7.04556ZM9.71094 1.04325L11.7082 1.14699L11.7095 1.12211L11.7102 1.09722L9.71094 1.04325ZM9.72435 0.54653L9.87489 -1.4478L9.37872 -1.48525L9.22817 0.509076L9.07763 2.5034L9.57381 2.54086L9.72435 0.54653ZM9.22817 0.509076L9.33192 -1.48823L3.3296 -1.8L3.22586 0.197312L3.12212 2.19462L9.12443 2.50638L9.22817 0.509076ZM3.22586 0.197312L1.22855 0.0935711L1.17573 1.11043L3.17304 1.21418L5.17035 1.31792L5.22317 0.301053L3.22586 0.197312ZM3.17304 1.21418L3.07004 3.21152L7.85962 3.45852L7.96263 1.46118L8.06563 -0.536167L3.27605 -0.783171L3.17304 1.21418ZM7.96263 1.46118L6.62368 -0.0244875L-0.828425 6.6917L0.510529 8.17737L1.84948 9.66304L9.30158 2.94684L7.96263 1.46118ZM0.510529 8.17737L-0.975137 9.51632L-0.305661 10.2592L1.18001 8.9202L2.66567 7.58125L1.99619 6.83842L0.510529 8.17737ZM1.18001 8.9202L2.51896 10.4059L9.97069 3.69001L8.63173 2.20435L7.29278 0.71868L-0.158948 7.43454L1.18001 8.9202ZM8.63173 2.20435L6.63444 2.10031L6.38502 6.88871L8.38231 6.99275L10.3796 7.09678L10.629 2.30838L8.63173 2.20435ZM8.38231 6.99275L8.27857 8.99005L9.29544 9.04287L9.39918 7.04556L9.50292 5.04825L8.48605 4.99544L8.38231 6.99275ZM9.39918 7.04556L11.3965 7.1493L11.7082 1.14699L9.71094 1.04325L7.71363 0.939504L7.40187 6.94182L9.39918 7.04556ZM9.71094 1.04325L11.7102 1.09722L11.7236 0.600501L9.72435 0.54653L7.72508 0.49256L7.71167 0.989275L9.71094 1.04325Z" fill="white" mask="url(#path-1-inside-1_1_346)"/>
</svg>
