<svg width="14" height="25" viewBox="0 0 14 25" fill="none" xmlns="http://www.w3.org/2000/svg">
<path d="M6.95705 12.4604C10.2404 12.4604 12.903 10.0157 12.903 6.99903C12.9062 5.92866 12.5638 4.88106 11.9185 3.9865C11.2732 3.09194 10.3534 2.38991 9.27358 1.96771C8.43878 1.64276 8.02137 1.48029 7.48981 1.80524C6.95824 2.13019 6.95705 2.66094 6.95705 3.72245V12.4604ZM6.95705 12.4604C3.67371 12.4604 1.01113 14.9051 1.01113 17.9217C1.00805 18.9922 1.35057 20.0399 1.99609 20.9345C2.64161 21.829 3.56163 22.531 4.64171 22.953C5.47533 23.278 5.89273 23.4404 6.42549 23.1155C6.95824 22.7905 6.95705 22.2598 6.95705 21.1983V12.4604Z" stroke="black" stroke-width="1.5" stroke-linecap="round" stroke-linejoin="round"/>
</svg>
