<svg width="9" height="6" viewBox="0 0 9 6" fill="none" xmlns="http://www.w3.org/2000/svg">
<path d="M8.09019 1.65881C8.09865 2.07096 8.02151 2.48053 7.8634 2.86293C7.70529 3.24533 7.46946 3.59267 7.17008 3.88412C6.87069 4.17556 6.51392 4.4051 6.12119 4.55895C5.72845 4.71279 5.30784 4.78778 4.8846 4.77941C4.46153 4.78751 4.04114 4.71232 3.64864 4.55835C3.25614 4.40438 2.89962 4.17481 2.60045 3.88339C2.30129 3.59197 2.06565 3.24472 1.90766 2.86245C1.74967 2.48019 1.67259 2.07079 1.68105 1.65881" fill="#5B5C58"/>
<path d="M8.09019 1.65881C8.09865 2.07096 8.02151 2.48053 7.8634 2.86293C7.70528 3.24533 7.46946 3.59267 7.17008 3.88412C6.87069 4.17556 6.51392 4.4051 6.12119 4.55895C5.72845 4.71279 5.30784 4.78778 4.8846 4.77941C4.46153 4.78751 4.04114 4.71232 3.64864 4.55835C3.25614 4.40438 2.89962 4.17481 2.60045 3.88339C2.30129 3.59197 2.06565 3.24472 1.90766 2.86245C1.74967 2.48019 1.67259 2.07079 1.68105 1.65881" stroke="black" stroke-width="1.5" stroke-linecap="round" stroke-linejoin="round"/>
</svg>
