<svg width="36" height="39" viewBox="0 0 36 39" fill="none" xmlns="http://www.w3.org/2000/svg">
<path d="M17.9534 5.31703C21.4628 5.31703 24.6615 6.07664 27.5497 7.59586C30.4379 9.11508 32.969 11.377 35.1429 14.3816L33.6522 15.5088C31.6957 12.7534 29.4056 10.6794 26.782 9.28666C24.1584 7.89394 21.2156 7.19696 17.9534 7.1957C14.7236 7.1957 11.8044 7.9002 9.19569 9.30921C6.58699 10.7182 4.30438 12.8161 2.34786 15.6027L0.857178 14.5225C3.06215 11.4853 5.60128 9.1921 8.47457 7.64283C11.3479 6.09355 14.5075 5.31829 17.9534 5.31703ZM17.9534 9.73191C22.2081 9.73191 25.8261 11.1566 28.8075 14.0059C31.7889 16.8552 33.2795 20.3307 33.2795 24.4325C33.2795 25.9667 32.728 27.2662 31.6249 28.3307C30.5218 29.3953 29.1789 29.9276 27.5963 29.9276C25.9814 29.9276 24.6149 29.3953 23.4969 28.3307C22.3789 27.2662 21.8199 25.9667 21.8199 24.4325C21.8199 23.4305 21.4472 22.5695 20.7019 21.8493C19.9566 21.1292 19.0404 20.7691 17.9534 20.7691C16.8665 20.7691 15.9503 21.1292 15.205 21.8493C14.4597 22.5695 14.087 23.4305 14.087 24.4325C14.087 27.4071 14.9721 29.9195 16.7423 31.9697C18.5125 34.02 21.1212 35.5624 24.5684 36.5969L24.1025 38.4286C20.3137 37.4579 17.387 35.759 15.3224 33.3317C13.2578 30.9045 12.2249 27.9381 12.2236 24.4325C12.2236 22.8982 12.7826 21.5913 13.9007 20.5117C15.0187 19.4321 16.3696 18.8917 17.9534 18.8904C19.5373 18.8892 20.8882 19.4296 22.0062 20.5117C23.1243 21.5938 23.6833 22.9008 23.6833 24.4325C23.6833 25.4345 24.064 26.2955 24.8255 27.0157C25.587 27.7358 26.5106 28.0959 27.5963 28.0959C28.6522 28.0959 29.5528 27.7358 30.2982 27.0157C31.0435 26.2955 31.4162 25.4345 31.4162 24.4325C31.4162 20.863 30.1118 17.8258 27.5031 15.3209C24.8944 12.8161 21.7267 11.5636 18 11.5636C14.2733 11.5636 11.1056 12.8161 8.49693 15.3209C5.88823 17.8258 4.58389 20.8474 4.58389 24.3855C4.58389 25.4814 4.70066 26.6556 4.9342 27.908C5.16774 29.1605 5.54786 30.5382 6.07457 32.0411L4.39755 32.6986C3.83854 31.2583 3.41929 29.8493 3.13979 28.4716C2.86028 27.0939 2.72053 25.7476 2.72053 24.4325C2.72053 20.3307 4.19569 16.8552 7.146 14.0059C10.0963 11.1566 13.6988 9.73191 17.9534 9.73191ZM17.9534 0.714294C19.9721 0.714294 21.9441 0.964783 23.8696 1.46576C25.7951 1.96674 27.8603 2.78083 30.0653 3.90803L29.3199 5.6458C27.1771 4.54991 25.2131 3.76713 23.428 3.29746C21.6429 2.8278 19.818 2.59296 17.9534 2.59296C15.9038 2.59296 14.0094 2.84345 12.2702 3.34443C10.5311 3.84541 8.71432 4.64384 6.81991 5.73973L5.9814 4.0959C8.03109 2.93739 10.0187 2.08447 11.9441 1.53715C13.8696 0.989832 15.8727 0.715547 17.9534 0.714294ZM17.9534 14.2877C21.059 14.2877 23.5982 15.3209 25.5708 17.3875C27.5435 19.454 28.5292 22.1155 28.528 25.3718H26.6646C26.6646 22.6164 25.8572 20.3934 24.2423 18.7026C22.6274 17.0118 20.5311 16.1663 17.9534 16.1663C15.5621 16.1663 13.528 16.9729 11.851 18.5861C10.1739 20.1992 9.33544 22.148 9.33544 24.4325C9.33544 26.8435 9.75469 28.9494 10.5932 30.7505C11.4317 32.5515 12.9379 34.5942 15.1118 36.8787L13.8075 38.1937C11.4783 35.7515 9.84041 33.5046 8.89382 31.4531C7.94724 29.4016 7.47333 27.0614 7.47208 24.4325C7.47208 21.6145 8.48948 19.2192 10.5243 17.2466C12.559 15.274 15.0354 14.2877 17.9534 14.2877ZM20.0497 31.5245C19.0559 30.5851 18.2951 29.4341 17.7671 28.0715C17.2392 26.7088 16.9752 25.1827 16.9752 23.4932H18.8385C18.8385 24.9022 19.0559 26.1859 19.4907 27.3444C19.9255 28.5029 20.5466 29.4579 21.3541 30.2094C22.1615 30.9296 23.0702 31.485 24.0802 31.8758C25.0901 32.2665 26.1379 32.4626 27.2236 32.4638C27.7516 32.4638 28.264 32.4087 28.7609 32.2985C29.2578 32.1883 29.7392 32.0399 30.205 31.8532L30.5311 33.6849C30.0031 33.9354 29.4597 34.1076 28.9007 34.2016C28.3416 34.2955 27.7826 34.3425 27.2236 34.3425C25.8572 34.3425 24.5609 34.1001 23.3348 33.6154C22.1087 33.1307 21.0137 32.4337 20.0497 31.5245Z" fill="black"/>
</svg>
